<svg xmlns="http://www.w3.org/2000/svg" fill-rule="evenodd" stroke-linejoin="round" stroke-miterlimit="1" clip-rule="evenodd" version="1" viewBox="0 0 572 597">
  <path fill="#a55520" fill-rule="nonzero" d="M209 429c-1-1-62-21-81-30-9-5-28-20-31-25-6-8-6-9-2-34 5-29 14-41 43-56 21-11 32-11 98-8 37 2 57 2 74-1 49-8 87-29 99-54 6-12 19-53 19-59l-26-17c-15-9-27-17-27-19 0-6 23-5 40 1 13 5 17 5 30 1 17-5 18-6 13-15-5-11 11-1 11 2 0 2 22 8 48 15 47 11 49 12 49 20-1 15-7 22-29 30a292 292 0 0 1-49 15c-1 1 3 7 9 14 17 22 19 32 20 79 0 41 0 42-10 61-6 11-10 21-10 23l-112 37-25 14c-34 20-53 25-85 25-23 0-29-1-45-9l-21-10z"/>
  <g fill-rule="nonzero" id="front_leg">
    <path fill="#a55520" d="M497 372c0 1 4 3 10 4 22 2 20 24-8 56l-41 50c-11 15-25 30-31 34-13 8-23 8-26-1-2-9 8-46 14-47l14-4c5-1 12-7 18-16l12-14c4 0 19-16 19-20 0-2-9 1-24 8-31 16-53 19-63 9-5-5-7-9-5-14 0-1-2-8 2-13 8-8 69-34 88-39 10-3 21 6 21 7z"/>
    <path fill="#28211b" d="M447 448c6-7 23 19 11 34-11 15-25 30-31 34-13 8-23 8-26-1-2-9 8-46 14-47l14-4c5-1 12-7 18-16z"/>
  </g>
  <g fill-rule="nonzero" id="back_leg">
    <path fill="#a55520" d="M12 590c-10-3-10-7 1-28 6-12 5-15-4-15-5 0-6-2-4-7 1-4 5-10 9-13l15-12c12-9 36-62 37-78 0-4 3-10 8-14 7-7 9-8 26-6l19 2-21-45c0-1 9-13 15-15 19-6 57-4 67 1 27 15 43 51 29 69-1 1-5 4-9 11-3 7-12 17-19 22-13 8-23 9-65 6-23-1-29 5-61 68-16 31-30 56-32 57l-11-3"/>
    <path fill="#28211b" d="M12 590c-10-3-10-7 1-28 6-12 5-15-4-15-5 0-6-2-4-7 1-4 5-10 9-13l15-12c12-9 27 10 26 21-1 13-30 56-32 57l-11-3z"/>
  </g>
  <path fill="#968072" fill-rule="nonzero" d="M469 115c0 2-6 7-11-2-5-11-21-16-60-16-38 0-55-3-67-12-7-5-49-65-50-70 0-5 6-2 18 8l13 11 2-12c3-20 8-11 8 15 0 23 0 23 6 18 4-3 6-10 6-15s2-8 4-7c1 1 3 10 3 20 0 17 1 19 8 24 18 12 63 11 73-2 3-3 7-13 8-22 1-8 3-15 5-15 4 0 3 27-2 37-5 9-5 9 4 12 19 5 39 2 53-7 15-9 26-25 26-36 0-7 0-7 4-3s5 7 2 18c-3 16-12 27-29 34-9 4-11 6-7 8 6 3 24-3 36-12 10-9 12-6 5 8-6 10-13 13-35 14s-23 1-23 4z"/>
  <path fill="#b8a28a" d="M481 128c7 0 14 8 14 14s-4 8-10 8c-7 0-12-6-12-12s2-10 8-10z"/>
  <path fill="#302010" d="M487 136c4 0 5 3 5 5 0 3-2 6-6 6s-7-2-7-6c0-3 4-5 8-5zM554 157l-5-2-3-4c0-2 1-2 3-2s6 4 6 7h9c0 1-6 2-10 1z"/>
</svg>
