<svg xmlns="http://www.w3.org/2000/svg" fill-rule="evenodd" stroke-linecap="round" stroke-linejoin="round" stroke-miterlimit="1.5" clip-rule="evenodd" viewBox="0 0 1309 988">
  <path fill="#d2bb9c" d="M292.6 142.2l275.7 60.5-49.1 223.9L243.5 366z"/>
  <path fill="#ba805a" d="M320.2 213.2l188.5 41.4L473 418l-188.6-41.4z"/>
  <path fill="#b89077" d="M205.5 123.1l28.6 6.3-54.8 250-28.7-6.3zM268.7 137l28.7 6.3-54.9 250L214 387zM561.7 201.3l28.6 6.2-54.8 250-28.7-6.2zM622.6 214.6l28.6 6.3-54.9 250-28.6-6.3z"/>
  <path fill="#5a74bf" d="M90 104.8l179.3-7.6 195.3-83.1 139.3 151.8L781 253.3 90 104.8z"/>
  <path fill="#b0a2b9" d="M587.6 158.6L289.2 97.3l174.2-74.1 124.2 135.4z"/>
  <g>
    <path fill="#f3f3dc" d="M187.2 371.2l334.7-91L558 413.2l-334.7 91.1z"/>
    <path fill="#c2aca7" d="M538.5 283.8L573.9 414l-362.3 98.6L176 382.4l15.6-4.2 25.9 95 70.6-19.3-25.8-95 20.4-5.5L315.1 472l149.7-40.7-32.3-118.8 20.8-5.6 25.8 95 67.2-18.3-25.8-95 18-5z"/>
    <path fill="#573b3c" d="M164.1 389l60.1-85.5.6-40.4 205.4-58.4 12.3 28.7 120.2 47.9L164.1 389z"/>
  </g>
  <g>
    <path fill="#b21e1e" fill-rule="nonzero" d="M802 287.1c-3 39.4 45.6 91.5 59.3 103 77.2 65.9-200.4 62.2-261 35.2-17-7.6-28.3-54.3-27.9-99.8.2-21 10.2-61 10.8-63.7 13.4-50.5 23-61.4 40.7-85 15.4-20.4 85.7-30.2 110.2-16.4 28.8 16.3 70.4 56.3 70.4 56.3s-1.5 58.4-2.4 70.4z"/>
    <path fill="#e5e5e5" d="M744.5 244.4l.8.1.7.2.8.2.7.3.7.4.7.3.6.5.6.5.6.5.6.6.4.6.5.6.4.7.3.7.9 2 .9 2 .9 1.9.8 1.9 1 2 .9 1.8.9 2 .9 1.8 1 2 .9 1.8 1 1.9.9 1.8 1 1.9 1 1.8.9 1.9 1 1.8 1 1.8 1 1.8 1 1.8 1 1.8 1 1.8 1 1.7 1 1.8 1 1.7 1.1 1.7 1 1.8 1 1.7 1.1 1.7 1 1.7 1.1 1.6 1.1 1.7 1 1.6 1.1 1.7 1.1 1.6 1 1.6 1.2 1.6 1 1.6 1.1 1.6 1 1.6 1.2 1.5 1 1.5 1.2 1.6 1 1.5 1.1 1.5 1.1 1.5 1.1 1.4 1.1 1.5 1.1 1.5 1.1 1.4 1.1 1.4 1 1.4 1.2 1.4 1 1.4 1.2 1.4 1 1.3 1.2 1.3 1 1.4 1.1 1.3 1.1 1.3 1.1 1.2 1 1.3 1.2 1.2 1 1.3 1.1 1.2 1.1 1.2 1 1.2 1.1 1.1 1 1.2 1.2 1.1 1 1.2 1 1 1.1 1.2 1 1 1 1 1.1 1.1 1 1 1 1 1 1 1 1 1 1 1 .9 1 1 1 .8 1 .9 1 .9 1 .8 1 .8.9.9.9.8 1 .7.8.8 1 .7.9.7.8.7 1 .7.8.7.9.6.8.6.8.6.9.6.8.6.8.5.8.5.7.5.8.5.7.5.8.4.7.4.7.4.7.4.3.2.3.2.4.1.3.2.3.1.3.2.3.1.3.2.3.1.3.2h.3l.3.2.2.1.3.1.3.1.2.1.3.1.2.1h.3l.2.2h.2l.2.1h.3l.2.1h.2l.1.1h.2l.2.1H869.2l.2.1h.4l.3.1.8.1.7.2.8.2.7.3.7.3.7.4.6.4.6.5.6.5.5.6.5.6.5.6.4.7.3.7.3.7.3.8.1.7.2.8v2.3l-.1.8-.2.8-.2.7-.3.7-.3.7-.4.7-.4.7-.5.6-.5.6-.6.5-.6.5-.6.4-.7.4-.7.4-.7.3-.8.2-.7.2-.8.1H867.1l-.4-.1h-.5l-.5-.2h-.4l-.5-.1-.4-.1-.5-.1-.4-.2h-.5l-.5-.2-.4-.1-.5-.2-.4-.1-.5-.2-.4-.1-.5-.2-.4-.1-.5-.2-.4-.2-.5-.1-.4-.2-.5-.2-.4-.2-.5-.2-.4-.2-.5-.2-.4-.2-.5-.3-.4-.2-.5-.2-.5-.2-.4-.3-.5-.2-.5-.3-.9-.5-.9-.5-1-.6-.9-.5-1-.6-.9-.6-1-.6-.9-.7-1-.6-1-.7-1-.7-1-.7-1-.7-1-.8-1-.7-1-.8-1-.8-1-.8-1-.9-1-.8-1.1-.9-1-.9-1.1-.9-1-1-1.1-.9-1.1-1-1-.9-1.2-1-1-1-1.1-1-1.1-1-1.1-1.1-1.1-1-1.1-1.2-1.1-1-1.1-1.2-1.2-1.1-1-1.2-1.2-1.1-1.1-1.2-1.2-1.2-1.1-1.2-1.1-1.3-1.2-1.2-1.1-1.3-1.1-1.3-1.2-1.3-1.1-1.3-1.2-1.3-1.1-1.3-1.2-1.4-1.1-1.4-1.2-1.3-1.1-1.4-1.2-1.5-1.2-1.4-1.1-1.4-1.2-1.5-1.1-1.4-1.2-1.5-1.1-1.5-1.2-1.5-1.1-1.6-1.2-1.5-1.1-1.6-1.2-1.5-1.1-1.6-1.2-1.6-1.1-1.6-1.2-1.6-1.1-1.7-1.1-1.6-1.2-1.7-1.1-1.6-1.1-1.7-1.2-1.7-1.1-1.7-1.1-1.7-1.1-1.8-1.1-1.7-1.2-1.8-1-1.7-1.2-1.8-1-1.8-1.1-1.8-1.1-1.8-1.1-1.9-1-1.8-1.2-1.8-1-2-1-1.8-1.1-1.9-1-1.9-1.1-1.9-1-1.9-1-1.9-1.1-2-1-1.9-1-2-1-2-1-1.9-1-2-1-2-1-2-.9-2-1-2-.9-2-1-2.1-.8-2-1-2.1-.2-.7-.3-.8-.1-.7-.2-.8v-2.3l.1-.8.2-.8.2-.7.3-.7.4-.7.3-.7.5-.7.5-.6.5-.5.6-.6.6-.5.6-.4.7-.4.7-.3.7-.3.7-.3.8-.1.8-.2h2.3z"/>
  </g>
  <g>
    <path fill="#feae7b" fill-rule="nonzero" d="M706.7 68.3c10 1.4 18.1 20 18.9 22.3 2.4 7.6.3 19.4.3 19.4s8.2 8.3 15.2 14c1 .9 9.3.5 11.2 2.6 1.8 2 2 9.1 1.6 12 0 0 6.7 10.9 5.6 20-1 9.7-84 19.7-91.8 18.6-9.6-1.4-18-7.5-25-14.5 0 0-10-11-6.8-24.3l1.7-30.5s59-40 69-39.6z"/>
    <path fill="#f4e7de" fill-rule="nonzero" d="M761.7 140.9s11.9 3.9 21.1 7.7a115 115 0 0 1 19 15l-14.3 4.6s28 25.7 31.7 36.6c5.4 15.4.8 68.4-4 74.7-1.5 1.9-29.4 7.7-44.3 6.7a331.7 331.7 0 0 1-78.3-15.6c-6.3-2.3-39.2-31.7-43.4-34.3-8-5-12.4-6.6-24.9-10.3-3.8.6-22.5-6.2-24.8-9.5-14-15.5 20.3-66.2 39.6-58.4 9 2.6 14.7 8 36 12.8 7.1-2.7 32-9.5 39.7-12 1.6-1.4 16.4 5.2 25.7 4 12.5-1.4 21.2-22 21.2-22z"/>
    <path fill="#fff8f8" fill-rule="nonzero" d="M687 118.2c5 .1 6.4 7.2 6.4 8.3-.1 6.1-10.3 6.2-14 5.5-2-.3-4.6-2.5-4.6-2.5s.4-4.2 1.8-5.5c2-1.9 5-5.9 10.4-5.8z"/>
    <ellipse cx="164.7" cy="29.9" rx="1.2" ry="1.2" transform="matrix(4.16667 0 0 4.31713 0 -4.3)"/>
    <path fill="#fff8f8" fill-rule="nonzero" d="M720.5 106.4c5 .1 6.4 7.2 6.4 8.3-.1 6.1-10.3 6.2-14 5.5-2-.3-4.6-2.5-4.6-2.5s.4-4.2 1.8-5.5c2-1.9 5-5.9 10.4-5.8z"/>
    <ellipse cx="164.7" cy="29.9" rx="1.2" ry="1.2" transform="matrix(4.16667 0 0 4.31713 33.2 -15.2)"/>
    <g>
      <path fill="#83000a" d="M746.5 211s-21.5 2-28.9-1.7c-7.3-3.6-17-23.2-17-23.2l20.4-3.3 19.4-12s-.6 13.2.4 19.7c1 6.7 5.7 20.5 5.7 20.5z"/>
      <path fill="#ff3a40" d="M746.5 211s-21.5 2-28.9-1.7c-7.3-3.6-17-23.2-17-23.2l18.6-.8s20.2 4.3 23.3 12.1c2.4 6.4 4 13.6 4 13.6z"/>
    </g>
    <g>
      <path fill="none" stroke="#b5472e" stroke-width="2.083335" d="M698.2 93.2c-5.5 7.5 11.3 41.9 17.4 37 4.4-3.5 28.8-6.1 34.3-5.4 10.9 1.4 2.8 27.3-10.4 35.7-4.7 3-29.7-1.6-29.8-4"/>
      <path fill="none" stroke="#b5472e" stroke-width=".3" d="M168.5 33.5c1.1 0 2 1.6 2 3.6s-.9 3.7-2 3.7" transform="matrix(7.9365 0 0 4.16667 -643 0)"/>
    </g>
    <g>
      <path fill="#cb2322" fill-rule="nonzero" d="M704.9 62.5L631 105c5.7-10.6-7.5-59.3-34.3-63-5.8-.8 16.2-22.3 16.2-22.3s23 17.7 41.7 19.4c58.5 5.5 50.2 23.4 50.2 23.4z"/>
      <path fill="#e5e5e5" d="M707 35.6h1.5l.8.2.7.1.8.2.7.2.8.2.7.3.8.2.7.3.7.4.7.3.7.4.6.4.7.4.6.5.6.5.6.5.6.5.6.5.5.6.5.6.5.6.5.6.4.6.4.7.4.7.4.7.4.6.3.8.3.7.2.7.3.8.2.7.2.8.1.7.2.8v.8l.1.7V58.8l-.2.8-.1.8-.2.7-.2.8-.2.7-.2.8-.3.7-.3.7-.2.4-.3.6-.3.6-.3.7-.4.7-.5.8-.5.8-.3.5-.3.5-.3.4-.3.5-.3.5-.4.5-.4.6-.3.5-.5.5-.4.6-.4.6-.5.5-.4.6-.5.6-.6.6-.5.6-.5.7-.6.6-.6.6-.6.7-.6.6-.7.7-.6.6-.7.7-.7.7-.8.7-.7.7-.8.7-.8.7-.8.7-.9.7-.8.7-.9.7-1 .7-.8.8-1 .7-1 .7-1 .7-1 .8-1 .7-1.1.8-1.1.7-1.2.7-1.1.8-1.2.7-1.2.8-1.2.7-1.3.7-1.3.8-1.4.8-1.3.7-1.3.8-1.3.7-1.3.7-1.2.6-1.3.7-1.2.6-1.3.7-1.2.6-1.2.6-1.2.5-1.1.6-1.2.5-1.1.6-1.1.5-1.1.5-1.1.4-1.1.5-1 .5-1 .4-1.1.4-1 .4-1 .4-1 .4-1 .4-.8.3-1 .4-.8.3-1 .3-.8.3-.8.3-.8.3-.8.2-.8.3-.7.2-.7.3-.8.2-.7.2-1.2.4-1.3.4-1.1.3-1 .3-1 .2-.8.2-.8.2-.6.1-.6.2h-.4l-.4.1-.7.2h-.8l-.8.1h-.7l-.8.1h-1.6l-.8-.1-.7-.1-.8-.1-.8-.2-.7-.2-.8-.2-.7-.2-.7-.3-.8-.3-.7-.3-.7-.3-.7-.4-.6-.4-.7-.4-.6-.5-.6-.4-.7-.5-.5-.5-.6-.6-.5-.5-.6-.6-.5-.6-.5-.6-.4-.6-.4-.7-.4-.7-.4-.6-.4-.7-.3-.7-.3-.8-.3-.7-.2-.7-.3-.8-.2-.7-.1-.8-.2-.8v-.7l-.2-.8V99.2l.2-.8.1-.7.2-.8.1-.8.3-.7.2-.7.3-.8.2-.7.4-.7.3-.7.4-.7.4-.7.4-.6.4-.7.5-.6.5-.6.5-.6.6-.5.5-.6.6-.5.6-.5.6-.5.6-.4.7-.5.6-.4.7-.4.7-.3.7-.4.7-.3.8-.2.7-.3.8-.2.7-.2.8-.2H629.2l.3-.1h.3l.5-.2.6-.1.6-.2.7-.2.8-.2 1-.3.4-.2.5-.1.5-.2.6-.2.6-.2.5-.2.6-.2.7-.2.6-.2.7-.2.6-.3.7-.3.7-.2.8-.3.7-.3.8-.3.8-.3.8-.4.8-.3.8-.4.9-.3.8-.4.9-.4.9-.4.9-.4 1-.5.9-.4 1-.5.9-.5 1-.5 1-.5 1-.5 1-.5 1-.6 1.1-.5 1-.6 1.2-.6 1-.6 1.2-.7 1-.6 1-.6.9-.5.9-.5.8-.6.8-.5.8-.5.8-.5.7-.5.7-.5.7-.5.7-.5.6-.5.7-.5.6-.4.5-.5.6-.5.5-.4.5-.4.5-.5.5-.4.5-.4.4-.4.4-.4.4-.3.4-.4.3-.4.4-.3.3-.4.3-.3.3-.3.3-.3.2-.3.3-.3.2-.3.2-.2.2-.3.2-.2.2-.2.1-.2.2-.2.1-.2.1-.2.2-.1V48h.1l.1-.2v-.1l.2-.2.1-.3.4-.7.4-.6.4-.7.4-.7.4-.6.5-.6.5-.6.5-.6.6-.5.6-.6.5-.5.6-.5.7-.5.6-.4.7-.4.6-.4.7-.4.7-.3.7-.4.7-.3.8-.2.7-.3.8-.2.7-.2.8-.1.8-.1.7-.1.8-.1h2.3zm-19.9 12v.3h-.1l.1-.3z"/>
      <ellipse cx="142.9" cy="5.4" fill="#e5e5e5" rx="5.6" ry="5.3" transform="translate(0 3.7) scale(4.16667)"/>
    </g>
  </g>
  <g>
    <path fill="#cb2322" fill-rule="nonzero" d="M846.5 276.3c12.3.6 16.3 21.4 16 32 0 8-4 19.9-5.2 20.5-7 4.3-59.7 11.2-72.7 12.2a3228 3228 0 0 1-102.6 4.7c-9.9-.3-69.7-10.6-78-11.7a42.4 42.4 0 0 1-36.5-36c-2.7-18.7 7.2-43 23-50.5 15.9-7.6 50.8-13.1 71.8 5.3 7.1 6.3 41.8 23.7 41.8 23.7 27 10.3 129.2-.5 142.4-.2z"/>
    <path fill="#decaca" d="M867.6 267.2h1.1l.5.2h.5l.5.1.5.2.5.1.5.2.5.2.4.1.5.3.5.2.4.2.5.3.4.3.4.2.4.3.4.4.4.3.4.3.4.4.3.4.4.4.3.4.3.4.3.4.3.4.3.5.2.4.3.5.2.4.5 1 .4.8.3.8.5 1 .4 1 .5 1 .2.5.3.6.2.6.2.5.3.6.2.6.2.6.3.7.2.6.2.7.2.8.2.7.1.5v.5l.2.5v.5l.2.7v.7l.1.7v.7l.2.8v.7l.1.8v.9l.1.8v.8l.1 1v.8l.1.9v1l.1.8v1l.1.9v2.9l.1.8v7.2l-.1.9v.8l-.1.8-.2 1.5v.8l-.1 1-.2 1v1l-.2 1v.5l-.2.6v.5l-.1.6-.1.6-.2.6v.6l-.2.6-.2.6-.2.7-.2.8-.3.8-.2.6-.3.6-.3.6-.4.8-.5.8-.7.9-.4.5-.3.4-.3.3-.4.4-.3.3-.4.3-.3.3-.4.3-.4.3-.3.2-.4.3-.4.2-.4.2-.4.3-.4.2-.4.1-.4.2-.4.2-.5.1-.5.2-.5.1-.5.1-.5.1-.5.1h-.5l-.5.1h-3.1l-.5-.2h-.5l-.5-.2-.5-.1-.5-.2-.5-.1-.5-.2-.5-.2-.4-.2-.5-.3-.4-.2-.5-.3-.4-.3-.4-.3-.4-.3-.4-.3-.4-.3-.4-.4-.4-.4-.3-.3-.3-.4-.4-.4-.3-.4-.3-.5-.2-.4-.3-.4-.2-.5-.3-.5-.2-.4-.2-.5-.2-.5-.1-.5-.2-.5-.1-.5-.1-.5-.1-.5v-.5l-.1-.5v-3.6l.2-.5v-.5l.2-.5.1-.5.2-.5.2-.5.2-.4.2-.5.1-.3v-.5l.2-.7v-.8l.1-.7.1-.8v-.7l.2-1.2v-.9l.1-.4V305l-.1-.8v-1.6l-.1-.8v-.8l-.1-.7v-.7l-.1-.7v-.7l-.1-.6v-.6l-.1-.6v-.5l-.1-.5v-.1l-.1-.2-.1-.2-.1-.3-.1-.3-.2-.4-.1-.3-.2-.4-.1-.4-.4-.7-.3-.8-.4-.7-.3-.7-.3-.6-.4-.8-.1-.3-.3-.5-.2-.5-.1-.5-.2-.4-.2-.5-.1-.5-.1-.5-.1-.5-.1-.5v-.6l-.1-.5v-3l.2-.6v-.5l.2-.5.1-.5.2-.4.1-.5.2-.5.2-.5.2-.5.3-.4.2-.5.3-.4.3-.4.3-.5.3-.4.3-.4.3-.4.4-.3.4-.4.3-.3.4-.4.4-.3.4-.3.5-.3.4-.3.4-.2.5-.3.4-.2.5-.2.5-.2.5-.2.5-.2.5-.1.5-.1.5-.1.5-.1.5-.1h.5l.5-.1h1.5zm-5.2 48zm2-1l-.4.2.2-.1.4-.2.5-.2-.6.2zm2.7-1l-1 .4.5-.2h.5l.5-.2h.5l.5-.1-1.5.1z"/>
  </g>
  <g>
    <path fill="#ee3231" fill-rule="nonzero" d="M858.2 268.4c-3 .5 5.5-65.9 26.1-86.4 26-26 90-14.1 111.5 4 18.4 15.5 15.1 27.9-10.8 21-55.2-14.4-58.4 76.4-33.6 101.3 7.6 7.5 57 9.6 57 9.6-10.1 4 31.3 36.9 50 34.6 17-2.2 18.8 4.3 13.4 12.7-2.2 3.5-80.5-2.8-93.7 2.8-27.6 11.6-18 25.4 30.9 44.5 24 9.4 28.3 13.6 29.2 19.6 3.5 22.7-50.7 10.4-57 6.2-3.3-2.2 26.3 61.8 38 77.3 13.2 17.3 26 33.6 60 30.4 54.5-5 135.4 105.5 108.4 137.2-11.9 13.9-41.1 29.5-107.3 44.2-36.2 8-157.3 36-162.2 37.2-8 1.8-4 38-3.4 38.8 1 1 225.7-41.8 284.7-54.3 32.3-7 43.4-17 41.5-37.6-1.6-16.4-2.7-15.4 5.8-7.3 19.8 19-13.7 57.8-19.6 54.3 1.3 5.5 61.6-14.6 61-28.4-.1-4 .4-11 .1-15.5-.6-8.2-.5-8.2 5.6-.3 16.8 22-2.8 43.7-47 52.3-10.8 2-1020.3 206.9-1036.4 210.4-36.2 7.9-35 8-32.6-1.5 2-7.5 1-7.6-21.2-2.5-23.8 5.5-26.8 4-19.3-10.2 6.2-11.5 201.7-50.4 203-51.8 3.7-3.6-3.5-26.7-9.8-29.2-3-1.1-124.2 5.5-151.5 7.4-47.8 3.3-169.6-112.4-169.8-199-.1-64.6 12.2-109 62-177.7 29.5-40.8 55-91.1 64.1-127 13.2-51.4 4.5-104.8-21.1-130.5-17-17-63.2 16.5-63.2 16.5-3.6-1.2-3.4-35.2 15-54 20.5-20.7 123.6-18.4 143.6 3 23.4 25 6 143.8-3.7 159-31.8 50.1 44.7 96.7 44.7 96.7l581.7-114c33.1-1 69.4-100.7 26-93.8zm-479.8 633c5.4-10.2-2.3-30.6-10.1-30.6-4.1 0-5.8 5.5-5.8 18.8 0 19.8 8.5 25.5 15.9 11.9zm25.2 1.3c2.7-.8 423.9-82.6 436.5-86.4 22.8-7 1.5-37.3-7.6-35.4-34.3 7.4-437.3 86.7-437.3 86.7s2.3 37.1 8.4 35.1zM889 792c-4.5-20.9-8.8-21.3-15.7-18.6-5 1.8-4 17.4-2.1 23.3 4.8 14.7 22.7 18.4 17.8-4.7z"/>
    <path fill="#e5951a" d="M931.5 167h4l1.1.1h1l1 .2h1l1.1.1 1 .1 1 .1 1 .1 1.1.1 1 .1 1 .2 1 .1 1.1.1 1 .2 1 .2 1 .1 1 .2 1 .2 1 .2 1 .1 1 .2 1 .3 1 .2 1 .2 1 .2 1 .2.9.3 1 .2.9.3 1 .2.9.3 1 .3.8.3 1 .2.9.3.9.3.9.3.9.3.8.3.9.3.9.3.8.4.9.3.8.3.8.4.8.3.9.4.8.3.7.4.8.3.8.4.7.3.8.4.7.4.7.4.7.4.7.3.7.4.7.4.6.4.7.4.6.4.6.4.6.4.6.4.6.5.5.4.6.4.5.4.5.4.4.4.5.4.4.3.4.4.4.3.4.4.3.3.4.4.4.4.3.3.4.3.3.4.3.3.4.4.3.3.3.4.3.3.3.3.3.4.2.3.3.3.3.4.2.3.3.3.2.3.2.3.2.4.3.3.2.3.2.3.1.3.2.3.2.3.2.3.1.3.2.3.1.3.1.3.2.3v.2l.2.3v.3l.2.3v.2l.1.3.1.3v.2l.1.3v.5l.1.2v1.9l-.1.2v.2l-.1.2-.1.2v.2l-.2.2v.2l-.2.2v.2l-.2.1-.1.2-.1.2-.2.1-.1.2-.2.2-.2.1-.1.2h-.2l-.2.2-.2.2h-.2l-.2.2-.3.1-.2.1-.2.1-.3.2h-.2l-.3.1-.3.1-.3.1h-.3l-.3.2h-.6l-.3.1h-.3l-.4.1h-.3l-.4.1h-5.3l-.5-.1-.5-.1h-.5l-.5-.1-.5-.1h-.5l-.5-.2h-.5l-.6-.2h-.5l-.6-.2-.5-.1-.6-.1-.6-.2-.6-.1-.6-.2-.6-.1-.6-.2-.7-.2-.6-.1-.6-.1-.7-.2h-.6l-.6-.2h-.6l-.6-.2h-.6l-.6-.1-.6-.1h-.6l-.6-.1h-6.1l-.5.1h-.5l-.6.2h-.5l-.5.1-.5.1-.5.1-.5.1-.5.2h-.5l-.4.2-.5.2-.5.1-.5.2-.4.1-.5.2-.4.2-.5.2-.5.2-.4.2-.4.2-.5.2-.4.2-.4.2-.4.2-.5.3-.4.2-.4.3-.4.2-.4.3-.4.3-.4.3-.4.2-.3.3-.4.3-.4.3-.4.3-.3.3-.4.4-.4.3-.3.3-.4.4-.3.3-.3.3-.4.4-.3.4-.3.3-.4.4-.3.4-.3.3-.3.4-.3.4-.3.4-.3.4-.3.4-.3.4-.3.4-.3.4-.3.5-.2.4-.3.4-.3.5-.2.4-.3.4-.3.5-.2.4-.3.5-.2.5-.2.4-.3.5-.2.5-.2.4-.3.5-.2.5-.2.5-.2.5-.2.5-.2.5-.2.5-.2.5-.2.5-.2.5-.2.5-.2.5-.1.5-.2.6-.2.5-.1.5-.2.5-.2.6-.1.5-.2.5-.1.6-.2.5-.1.6-.1.5-.2.6-.1.5-.1.6-.1.5-.2.6v.5l-.2.6v.6l-.2.5-.1.6v.6l-.2.5v.6l-.2.6v.6l-.1.5v.6l-.2.6v1.2l-.1.5-.1.6v.6l-.1.6v1.2l-.1.5v1.2l-.1.6V258l-.1.6V265l.1.6v1.2l.1.6v1.1l.1.6v.6l.1.6.1.6v.5l.1.6v.6l.2.6v.5l.1.6v.6l.2.6v.5l.1.6.1.6.1.5.1.6.1.5.1.6.1.5.1.6.2.5v.6l.2.5.1.6.1.5.2.6.1.5.1.5.2.6.1.5.2.5.1.5.2.5.1.6.2.5.1.5.2.5.2.5.1.5.2.5.2.5.2.5.1.5.2.4.2.5.2.5.2.5.2.4.2.5.2.5.2.4.2.5.2.4.2.4.2.5.2.4.3.5.2.4.2.4.2.4.3.4.2.4.2.4.3.4.2.4.3.4.2.4.3.4.2.3.3.4.2.4.3.3.2.4.3.3.3.4.3.3.2.3.3.4.3.3.3.3.3.3.2.3.3.3.2.2.2.1.2.2.3.2.2.2.3.1.2.2.3.1.3.2.3.2.3.1.4.2.3.1.4.2.4.1.3.2.4.1.4.2.5.1.4.1.4.2.5.1.4.1.5.2.5.1.4.1.5.2h.5l.5.2.5.1.6.2h.5l1 .3 1.2.2 1.1.3 1.2.2 1.1.2 1.2.2 1.2.2 1.2.2 1.3.1 1.2.2 1.3.2 1.2.1 1.3.2 1.2.2 1.3.1 1.2.1 1.2.2 1.3.1 1.2.1 1.2.2h1.2l1.2.2h1.2l1.1.2 2.2.2 2.2.1 2 .2 1.8.1 1.7.1 1.5.1h1.4l1.1.1 1.6.1h.5l-.2.1h-.1l-.1.2h-.1l-.2.1-.1.2h-.1v.1h-.1l-.1.2-.1.1v.1h-.1v.2l-.1.2v.4h-.1v1l.1.2v.1l.1.3.1.3.1.2.1.3.2.3.1.3.2.3.2.3.2.3.2.3.2.3.2.3.2.4.3.3.3.4.2.3.3.3.3.4.3.4.4.3.3.4.3.4.4.3.4.4.3.4.4.4.4.3.4.4.4.4.4.4.5.4.4.4.5.4.4.4.5.4.4.4.5.4.5.4.5.4.4.3-3.2 2.1h.2l.6-.3.6-.3.6-.3.6-.4.7-.4.2-.2.3.3.5.4.5.3.5.4.6.4.5.4.5.4.6.4.5.4.6.4.5.4.6.4.6.4.5.3.6.4.6.4.6.4.5.3.6.4.6.4.6.3.6.4.6.3.6.4.6.3.6.4.6.3.6.3.6.3.6.4.6.3.6.3.6.3.6.3.6.3.6.2.6.3.6.3.6.3.6.2.5.3.6.2.6.2.6.2.6.3.6.2.5.2.6.2.6.1.5.2.6.2.5.1.6.2.5.1.6.1.5.1.5.1.6.1.5.1h.5l.5.1h.5l.5.1H1058.3l.8-.1.8-.1.7-.1h.8l.7-.1h5.1l.2.1h.5l.3.1h.2l.2.1h.5l.2.1h.2l.2.1.2.1h.2l.2.1h.2l.2.2H1071l.2.2h.2l.1.1.2.1h.1l.2.2h.1l.1.1.2.1.1.1.1.1.2.1v.1l.2.1.1.1.1.1.1.1.1.1v.2h.2v.2l.1.1.1.1v.1l.2.2v.2l.1.1v.2l.1.1v.1l.1.2v.2l.1.2v.4l.1.2V359.2l-.1.1v.4l-.2.3v.3l-.2.4v.3l-.2.4-.2.4-.1.3-.2.4-.2.4-.2.3-.2.4-.2.4-.2.4-.2.4-.3.4h-.1v.1h-.1v.1h-.2l-.2.1-.2.1h-.2l-.3.1h-.2l-.3.1h-.4l-.3.1h-.8l-.4.1h-.4l-.5.1h-1.5l-1 .1h-3.8l-1.4.1h-9.5l-1.7-.1h-3.6l-3.8-.1-3.9-.1-4-.1-4-.1h-4l-4-.1h-4l-2-.1h-17l-1.7.1-1.7.1H993l-.8.1h-.7l-.8.1h-.7l-.8.1h-.7l-.7.1h-.6l-.7.1-.7.1h-.6l-.6.2h-.6l-.6.1-.5.1h-.6l-.5.2h-.5l-.5.2h-.4l-.4.2-.5.1-.3.1-.4.1-.4.2H978.1l-.6.4-.6.2-.7.3-.6.3-.5.3-.6.2-.6.3-.5.3-.5.3-.6.3-.5.2-.5.3-.4.3-.5.3-.4.3-.5.3-.4.2-.4.3-.4.3-.4.3-.3.3-.4.3-.3.3-.4.3-.3.3-.3.3-.3.3-.2.3-.3.3-.2.3-.3.3-.2.3-.2.3-.2.3v.1l-.1.2-.1.1v.2l-.2.1v.2l-.1.1v.2l-.1.2v.1l-.1.2v.1l-.1.2v.1l-.1.2V380.4l-.1.2v.4l-.1.2V383.1l.1.2V383.6l.1.2v.1l.1.2v.2l.1.1v.2l.1.2.2.3.1.3.2.4.1.3.2.3.2.4.2.3.3.4.2.3.3.3.2.4.3.3.3.4.3.3.4.4.3.3.4.4.3.3.4.4.4.4.4.3.5.4.4.3.5.4.4.4.5.3.5.4.5.4.5.4.6.3.5.4.6.4.6.4.6.3.6.4.6.4.7.4.6.4.7.4.7.3.6.4.8.4.7.4.7.4.8.4.7.4.8.4.8.4.8.4.8.4.9.4.8.5.9.4.9.4.9.4.9.4.9.4 1 .5.9.4 1 .4 1 .4 1 .5 1 .4 1 .4 1 .5 1 .4 1.1.4 1.1.5 1.1.4 1.1.4 1.1.5 2.3.9 1 .4 1.1.4 1 .4 1 .5 1 .4 1 .3.9.4.9.4.9.4.8.4.8.3.8.4.8.3.7.4.8.3.7.4.6.3.7.3.6.3.6.4.6.3.6.3.5.3.6.3.5.3.5.3.5.3.4.3.4.2.5.3.4.3.4.3.3.2.4.3.3.3.3.3.3.2.3.3.3.2.3.3.2.3.3.2.2.3.2.2.2.3.2.3.1.2.2.3.2.2.1.3.1.3.2.2v.3l.2.2v.3l.2.3v.2l.1.3.1.3v.2l.1.3v.3l.1.3v.5l.1.2V436l-.1.2v.3l-.1.2v.2l-.1.2-.1.2v.2l-.1.2-.1.2-.1.2v.1l-.2.2v.2l-.2.2v.2l-.2.1-.1.2-.1.2-.1.1-.1.2-.2.2-.1.1-.1.2-.2.1-.1.2-.2.1-.1.2-.2.1-.1.1-.2.2-.2.1-.1.1-.2.2-.2.1-.1.1-.2.2h-.2l-.2.2-.2.1-.2.1-.2.1-.2.1-.2.1-.2.1-.2.1-.2.1-.2.1-.2.1-.5.2-.4.2-.5.1-.5.2-.5.1-.5.2-.5.1-.5.1-.5.2h-.6l-.5.2h-.6l-.5.1-.6.1h-.6l-.5.1-.6.1h-1.2l-.6.1h-1.9l-.6.1h-4.5l-.6-.1h-.7l-.6-.1h-.7l-.6-.1h-.7l-.7-.1h-.6l-.7-.2h-.6l-.7-.1h-.6l-.7-.2h-.6l-.7-.1-.6-.1-.7-.1-.6-.1-.7-.1-.6-.1-.6-.2h-.6l-.7-.2-1.2-.2-1.2-.3-1.2-.2-1.1-.3-1.2-.2-1-.3-1.1-.2-1-.3-1-.3-1-.3-.9-.2-.8-.3-.8-.2-.4-.2-.4-.1-.3-.1-.4-.2h-.3l-.3-.2-.3-.1-.3-.1-.3-.2h-.2l-.3-.2-.2-.1-.2-.1-.2-.1-.2-.1-.1-.1h-.2v1l.1.3.1.2v.3l.2.3.2.6.2.7.3.8.4.8.3.9.4 1 .4 1 .5 1 .5 1.2.5 1.2.5 1.3.6 1.2.6 1.4.6 1.4.6 1.4.7 1.4.7 1.5.7 1.5.7 1.6.7 1.5.7 1.6.8 1.7.8 1.6.8 1.6.8 1.7.8 1.7.8 1.7.8 1.6.9 1.7.8 1.7.8 1.7.9 1.7.8 1.7.9 1.6.8 1.7.9 1.6.8 1.6.8 1.6.9 1.6.8 1.5.8 1.5.8 1.5.8 1.4.8 1.5.8 1.3.8 1.4.7 1.2.7 1.3.7 1.2.4.5.3.6.4.5.3.6.4.5.3.5.3.5.3.4.3.5.3.4.3.5.3.4.3.4.3.3 1.2 1.6 1.3 1.7.6.8.6.8.6.7.6.8.7.8.6.8.6.8.7.7.6.8.7.7.6.8.7.7.7.8.7.7.3.3.4.4.3.3.4.4.3.3.4.4.3.3.4.4.3.3.4.3.4.4.3.3.4.3.4.3.4.4.4.3.3.3.4.3.4.3.4.3.4.3.4.3.4.3.4.3.4.3.5.3.4.2.4.3.4.3.5.2.4.3.4.3.5.2.4.3.5.2.4.3.5.2.5.2.4.3.5.2.5.2.5.2.5.3.5.2.4.2.6.2.5.2.5.2.5.1.5.2.5.2.6.2.5.1.6.2.5.2.6.1.5.2.6.1.6.1.5.2h.6l.6.2.6.1.6.1.6.1.6.1.6.1.7.1h.6l.6.1.7.1h.6l.7.1h.7l.6.1h1.4l.7.1h6.5l.8-.1h.8l.7-.1h.8l.8-.2h1.9l.7-.1h3.9l.7.1h.6l.7.1.7.1.6.1.7.1.7.1.7.1.6.2h.7l.7.2.7.2.6.1.7.2.7.2.7.2.7.2.7.2.7.2.6.2.7.2.7.3.7.2.7.3.7.3.7.2.7.3.7.3.7.3.7.3.7.3.7.3.7.4.7.3.7.3.7.4.7.3.7.4.7.4.7.4.7.3.7.4.7.4.7.4.7.5.7.4.7.4.7.4.6.5.7.4.7.5.7.4.7.5.7.5.7.5.7.4.7.5.7.5.7.5.7.5.7.6.7.5.6.5.7.5.7.6.7.5.7.6.7.5.7.6.6.5.7.6.7.6.7.5.6.6.7.6.7.6.6.6.7.6.7.6.6.6.7.6.7.6.6.7.7.6.6.6.7.7.6.6.7.6.6.7.6.6.7.7.6.6.7.7.6.7.6.6.6.7.7.7.6.6.6.7.6.7.6.7.6.7.6.7.6.7.6.7.6.7.6.7.6.7.6.7.6.7.6.7.6.7.5.7.6.7.6.8.5.7.6.7.6.7.5.8.6.7.5.7.5.7.6.8.5.7.5.7.6.8.5.7.5.8.5.7.5.7.5.8.5.7.5.8.5.7.5.7.5.8.5.7.4.8.5.7.5.8.4.7.5.8.4.7.5.8.4.7.4.7.5.8.4.7.4.8.4.7.4.8.4.7.4.7.4.8.4.7.4.8.4.7.3.7.4.8.4.7.3.8.4.7.3.7.3.7.4.8.3.7.3.7.3.8.3.7.3.7.3.7.3.7.3.7.3.8.2.7.3.7.2.7.3.7.2.7.3.7.2.7.2.7.2.6.2.7.2.7.2.7.2.7.2.7.2.6.1.7.2.7.1.6.2.7.1.6.1.7.2.6v.7l.2.6v.6l.2.7v.6l.1.6.1.6v.7l.1.6v1.2l.1.6v5.1l-.1.6-.1.5v.6l-.2.5v.5l-.1.6-.2.5v.5l-.2.5-.1.5-.2.5-.1.5-.2.4-.1.5-.2.5-.2.4-.2.5-.2.5-.2.4-.3.4-.2.5-.2.4-.3.4-.2.4-.3.4-.3.4-.3.4-.3.4-.3.4-.3.3-.3.3-.3.3-.3.4-.3.3-.3.3-.3.4-.3.3-.4.3-.3.3-.4.4-.3.3-.4.3-.3.4-.4.3-.4.3-.4.4-.4.3-.4.4-.4.3-.4.3-.5.4-.4.3-.4.3-.5.4-.4.3-.5.4-.5.3-.5.3-.5.4-.5.3-.5.4-.5.3-.5.4-.5.3-.6.3-.5.4-.6.3-.5.4-.6.3-.6.4-.6.3-.6.4-.6.3-.6.3-.6.4-.7.3-.6.4-.7.3-.6.4-.7.3-.7.4-.7.3-.7.4-.7.3-.7.4-.7.3-.7.4-.8.3-.8.4-.7.3-.8.4-.8.3-.8.4-.8.3-.8.4-.8.3-.9.4-.8.3-.9.4-.8.3-.9.4-.9.3-.9.4-.9.3-1 .4-.8.3-1 .4-1 .4-.9.3-1 .4-1 .3-1 .4-1 .3-1 .4-1 .3-1 .4-1 .3-1.1.4-1.1.3-1 .4-1.2.3-1.1.4-1.1.3-1.1.4-1.2.3-1.1.4-1.2.3-1.2.4-1.2.4-1.2.3-1.2.4-1.2.3-1.2.4-1.3.3-1.3.4-1.2.3-1.3.4-1.3.3-1.3.4-1.4.3-1.3.4-1.3.3-1.4.4-1.4.3-1.4.4-1.4.3-1.4.4-1.4.3-1.4.4-1.5.3-1.5.4-1.4.3-1.5.3-1.5.4-1.6.3-1.5.4-1.5.3-3.7.8-4 1-4.6 1-4.9 1.1-10.8 2.5-12 2.7-12.7 2.9-13.2 3-13.5 3.1-13.4 3.1-25.4 5.9-21.7 5L925 763l-4.7 1-2.2.6h-.2l-.2.1h-.1l-.1.1h-.1l-.2.2h-.1l-.2.2-.1.1-.2.2-.1.1-.2.2-.1.2-.2.1-.1.2-.1.2-.1.3-.2.2v.2l-.2.3-.1.2-.1.3-.1.2-.1.3-.1.3-.1.3v.3l-.2.3v.3l-.1.3-.1.3v.4l-.2.3v.4l-.1.3v.4l-.1.3v.4l-.1.4v.4l-.1.3-.1.8v.8l-.2.8V778.3l-.1.9v2.6l-.1.8v5.3l.1.8V790.4l.1.9v.8l.1.8v.8l.1.7v.8l.2.7v1.4l.2 1.2.1 1.2.1 1 .1.5v.4l.1.3v.4l.1.3v.2l.1.2V803.3H916.4l.5-.1.6-.1 1.4-.2 1.7-.3 2-.3 2.3-.4 2.5-.5 2.7-.4 3-.6 3.3-.6 3.4-.6 3.7-.6 3.8-.7 4-.8 8.7-1.6 9.4-1.7 9.9-1.9 10.4-2 11-2 11.2-2.1 11.6-2.2 11.9-2.3 12-2.2 12.1-2.4 12.1-2.3 12.1-2.3 12-2.4 11.8-2.2 11.5-2.3 11.2-2.2 10.8-2.1 10.4-2 9.8-2 4.6-1 4.5-.8 4.4-1 4.1-.8 4-.8 3.8-.7 3.5-.8 3.4-.7 3-.6 3-.6 1.5-.4 1.4-.3 1.5-.3 1.4-.4.7-.1.7-.2.6-.2.7-.2.7-.1.6-.2.7-.2.6-.2.6-.2.7-.1.6-.2.6-.2.6-.2.6-.2.6-.2.6-.2.5-.2.6-.2.6-.2.5-.2.6-.2.5-.2.5-.2.6-.2.5-.2.5-.2.5-.2.5-.3.5-.2.5-.2.5-.2.4-.2.5-.3.4-.2.5-.2.4-.3.5-.2.4-.2.4-.3.4-.2.4-.2.4-.3.4-.2.4-.3.4-.2.4-.3.4-.2.3-.3.4-.3.3-.2.4-.3.3-.3.3-.2.4-.3.3-.3.3-.3.3-.2.3-.3.3-.3.3-.3.2-.3.3-.3.3-.3.2-.3.3-.3.3-.3.2-.3.2-.3.3-.3.2-.3.2-.3.2-.4.2-.3.2-.3.2-.3.2-.4.2-.3.2-.3.2-.4.1-.3.2-.4.1-.3.2-.4.1-.3.2-.4.1-.4.1-.3.2-.4v-.4l.2-.3v-.4l.2-.4v-.4l.2-.4v-.4l.1-.4.1-.4v-.4l.1-.4v-.4l.1-.4v-.4l.1-.4v-.4l.1-.5V712.5l-.1-.5v-.5l-.2-1.5-.1-1.4-.3-2.4-.2-2.1-.1-1v-.8l-.1-.7v-.7l-.1-.3V699l.1-.1v-.1l.1-.1.1-.1h.6l.1.1.2.1.1.1.2.1.1.2.2.1.2.2.2.1.4.4.5.5.5.5.6.5 1.2 1.3.8.7.7.7.3.3.2.2.2.2.2.2.2.3.2.2.2.2.2.3.2.2.2.2.2.3.2.2.1.3.2.2.2.2.1.3.2.2.1.3.2.2.1.3.2.3v.2l.2.3.1.2.2.3v.2l.2.3.1.3.1.2.1.3.1.3.1.2v.3l.2.3v.2l.1.3.1.3v.3l.1.2v.3l.2.3v.5l.1.3v.6l.1.3v.5l.1.3V722.3l-.2.6v.6l-.1.6-.1.6-.2.6v.6l-.2.6-.2.6-.1.6-.2.6-.2.5-.2.6-.2.6-.2.6-.2.6-.2.6-.2.6-.2.6-.3.5-.2.6-.3.6-.3.6-.2.5-.3.6-.3.6-.3.5-.3.6-.3.6-.3.5-.3.6-.3.5-.3.5-.3.6-.4.5-.3.5-.3.5-.4.6-.3.5-.3.5-.4.5-.3.5-.4.5-.3.4-.4.5-.4.5-.3.4-.4.5-.3.4-.4.5-.3.4-.4.4-.4.5-.3.4-.4.4-.3.4-.4.3-.3.4-.4.4-.3.3-.4.4-.3.3-.4.4-.3.3-.4.3-.3.3-.3.3-.4.2-.3.3-.3.3-.3.2-.3.3-.3.2-.3.2-.3.2-.3.2-.3.2-.3.1-.3.2-.2.1-.3.1-.3.1-.2.1-.2.1-.3.1h-.2l-.2.1h-1.2l-.1-.1h-.1v.1l.1.1.1.1.1.1h.1v.1h.2l.1.1h.2v.1h.4l.2.1h3l.4-.1h.4l.4-.1h.4l.5-.2h.5l.5-.1.5-.1.5-.1.5-.1.5-.1.5-.2h.6l.6-.2.5-.2.6-.1.6-.2.6-.1.6-.2.6-.2.7-.1.6-.2.6-.2.7-.2.6-.2.7-.2.7-.2.6-.2.7-.2.7-.3.7-.2.7-.2.6-.3.7-.2.7-.2.7-.3.7-.3.8-.2.7-.3.7-.2.7-.3.7-.3.7-.3.7-.3.7-.2.7-.3.7-.3.8-.3.7-.3.7-.3.7-.3.7-.3.7-.3.7-.4.6-.3.7-.3.7-.3.7-.3.7-.4.6-.3.7-.3.6-.3.7-.4.6-.3.7-.4.6-.3.6-.3.6-.4.6-.3.6-.4.6-.3.6-.4.5-.3.6-.4.5-.3.5-.4.6-.3.5-.4.5-.3.4-.4.5-.3.5-.4.4-.3.4-.4.5-.3.4-.4.4-.3.3-.4.4-.3.3-.4.3-.3.4-.4.2-.3.2-.2.1-.2.1-.1.2-.2.1-.2.1-.2.1-.1.1-.2.1-.2.1-.1.1-.2.1-.2.1-.2v-.1l.2-.2V732.3l.2-.2V731.8l.1-.2V731.3l.1-.2v-6.5l.2-2v-8l-.2-1.5V711.3l-.1-.5V709l.1-.1v-.1l.1-.1v-.1h.1l.1-.1h.4v.1h.2v.2h.2l.1.1.1.2h.1l.2.2.1.2.2.1.3.4.3.4.4.4.4.5.4.5.4.6.5.6 1.1 1.4.4.6.4.5.3.5.4.5.3.5.3.5.3.5.3.5.3.6.3.5.2.5.3.5.2.5.2.5.2.5.2.5.2.5.2.5.1.5.2.5v.5l.2.5v.6l.2.5v.5l.1.5v.5l.1.4v3.5l-.1.5v.5l-.2.5v.4l-.2.5v.5l-.2.5-.1.5-.2.4-.2.5-.1.5-.2.5-.2.4-.2.5-.3.5-.2.4-.3.5-.2.4-.3.5-.3.4-.3.5-.3.5-.3.4-.3.4-.4.5-.3.4-.4.5-.3.4-.4.4-.4.5-.4.4-.4.4-.5.5-.4.4-.5.4-.4.4-.5.4-.5.4-.5.5-.5.4-.5.4-.5.4-.6.4-.5.4-.6.3-.5.4-.6.4-.6.4-.6.4-.6.4-.6.3-.7.4-.6.4-.7.3-.6.4-.7.3-.7.4-.7.3-.7.4-.7.3-.7.4-.7.3-.8.3-.7.4-.8.3-.8.3-.8.3-.8.3-.8.3-.8.3-.8.3-.8.3-.9.3-.8.3-.9.3-.9.3-.8.3-1 .2-.8.3-1 .3-.9.2-.9.3-1 .2-.9.3-1 .2-1 .2-.9.3-1 .2-1 .2-1 .2-1 .2-1 .3-1 .2-1.3.2-2.6.5-9.4 2-33.7 6.8-51.3 10.4-66 13.3-77.7 15.8-86.5 17.5L826 852l-95.4 19.3-95.5 19.4-92.6 18.8-86.8 17.6-78.1 15.9-66.5 13.5-28 5.7-24 4.9-19.6 4-15 3-5.5 1.2-4.2.9-3 .5-1.4.4-6.3 1.4-3 .6-2.6.6-2.5.5-2.3.5-2 .4-1 .2-1 .2-1 .2-.8.1-.8.2-.8.1-.7.2h-.7l-.7.2h-.7l-.6.1-.5.1h-.6l-.5.1H178.6l-.1-.1H178.2v-.1h-.2l-.1-.1h-.1l-.1-.1h-.1l-.1-.1-.1-.1-.1-.1-.1-.2h-.1v-.1l-.1-.1v-.2h-.1v-.4h-.1v-1.5l.1-.3v-.3l.1-.3.1-.4.1-.3.2-.8.4-1.6.2-.7.2-.7v-.3l.1-.2v-.3l.1-.3v-.8l.1-.2v-.9l-.1-.2v-.2h-.1v-.2h-.1v-.1l-.1-.1h-.1v-.2h-.1l-.1-.1h-.1v-.1h-.2v-.1h-.2l-.1-.1h-.2l-.1-.1h-.4l-.2-.1h-3.1l-.5.1-.5.1h-.5l-.5.2h-.5l-.6.2h-.5l-.7.2-.6.1-1.3.3-1.5.3-1.5.3-1.7.4-1.8.4-1.9.4-2 .5-1 .3-1.2.2-1 .2-1 .3-1 .2-1 .2-.9.2-.9.1-.8.2-.9.2-.8.1-.8.1-.7.2h-.7l-.7.2h-.7l-.7.1h-.6l-.6.1H137l-.2-.1h-.4l-.1-.1h-.2l-.2-.1h-.1l-.2-.1h-.1l-.2-.1-.1-.1h-.1l-.2-.2-.2-.1v-.1h-.2v-.2h-.2v-.2h-.1l-.1-.2v-.1l-.1-.1v-.1l-.1-.2-.1-.2v-.2l-.1-.2v-1.9l.1-.2V970.8l.1-.2.1-.3v-.2l.1-.2.2-.4.1-.5.2-.5.2-.5.2-.5.2-.5.3-.5.3-.6.2-.6.3-.6.4-.6.3-.6.3-.7.1-.1v-.1h.1l.1-.2.2-.2.1-.1.2-.2.2-.1.2-.2.2-.1.2-.2.3-.1.2-.2.3-.2.3-.1.3-.2.3-.2.4-.1.3-.2.4-.2.4-.2.4-.2.4-.1.4-.2.5-.2.4-.2.5-.2.5-.2.5-.2 1-.4 1-.4 1.2-.4 1.2-.4 1.3-.4 1.2-.5 1.4-.4 1.4-.4 1.4-.5 1.5-.4 1.5-.5 1.5-.5 1.6-.4 1.7-.5 1.6-.5 1.7-.5 1.8-.5 1.8-.5 1.8-.5 1.9-.5 1.8-.5 2-.5 1.9-.5 2-.5 2-.5 2-.5 2-.6 2.1-.5 2.1-.5 2.1-.6 2.2-.5 2.2-.5 4.3-1.1 4.5-1 4.5-1.2 4.6-1 4.6-1.1 4.6-1.1 4.6-1 4.7-1.1 4.7-1.1 4.6-1 4.7-1.1 4.6-1 4.6-1 4.6-1.1 4.5-1 4.5-1 4.4-1 8.5-1.8 8.2-1.8 7.8-1.7 7.3-1.5 6.6-1.5 6-1.3 5.4-1.1 2.4-.6 2.1-.4 2-.5 1.7-.4 1.5-.3 1.2-.3 1-.2.4-.2h.4l.3-.1h.2l.1-.1.2-.2.1-.2.1-.2.1-.1v-.1l.1-.2v-.1l.1-.2v-.1l.1-.2V909.2l.1-.2v-.5l.1-.2v-3l-.1-.5v-.6l-.2-.5v-.6l-.1-.5-.2-.6v-.6l-.2-.6-.1-.6-.2-.6-.1-.6-.2-.6-.2-.6-.2-.6-.1-.6-.2-.6-.2-.6-.3-.6-.2-.7-.2-.6-.2-.6-.3-.6-.2-.5-.3-.6-.2-.6-.3-.6-.2-.5-.3-.6-.3-.5-.2-.5-.3-.5-.3-.5-.3-.5-.3-.4-.3-.5-.1-.2-.2-.2-.1-.2-.1-.2-.2-.2-.1-.2-.2-.2-.1-.1-.2-.2-.1-.2-.2-.1-.1-.2-.2-.1-.1-.2-.2-.1-.1-.2h-.2l-.1-.2-.2-.1-.1-.1-.2-.1-.1-.1h-.2l-.1-.2H330.5v-.1H329.5l-.3-.1h-8.1l-1.7.1-1.8.1h-2l-2 .1-2.1.1-2.2.1-4.8.2-5.1.2-5.4.3-5.7.2-6 .3-6 .3-6.2.3-6.4.3-6.4.4-6.4.3-6.5.3-6.4.4-6.3.3-6.2.4-6 .3-5.9.3-5.5.4-5.4.3-5 .3-4.6.2-4.2.3-3.8.2-3.4.3-2.8.2h-4.7l-.6-.1-.6-.1h-.6l-.7-.2h-.6l-.7-.1-.6-.2h-.7l-.6-.2-.7-.2-.7-.1-.7-.2-.6-.2-.7-.1-.7-.2-.7-.2-.7-.2-.7-.3-.8-.2-.7-.2-.7-.3-.7-.2-.8-.3-.7-.3-.7-.3-.8-.3-.7-.3-.8-.3-.8-.3-.7-.4-.8-.3-.8-.3-.7-.4-.8-.4-.8-.3-.8-.4-.8-.4-.8-.4-.8-.4-.8-.5-.8-.4-.8-.4-.8-.5-.8-.4-.9-.5-.8-.4-.8-.5-.8-.5-.9-.5-.8-.5-.8-.5-.9-.5-.8-.5-.9-.6-.8-.5-.9-.6-.8-.5-.9-.6-.8-.5-.9-.6-.8-.6-.9-.6-.9-.6-.8-.6-.9-.6-.9-.6-.8-.6-1-.7-.8-.6-.9-.7-.8-.6-1-.7-.8-.6-.9-.7-.9-.7-.8-.7-1-.7-.8-.7-.9-.7-.9-.7-.9-.7-.8-.7-1-.8-.8-.7-1-.7-.8-.8-.9-.7-.9-.8-.9-.8-.8-.7-1-.8-.8-.8-1-.8-.8-.8-.9-.8-.9-.8-.9-.8-.8-.8-1-.8-.8-.9-.9-.8-.9-.8-.9-.9-.8-.8-1-.9-.8-.8-.9-.9-.9-.8-.8-1-1-.8-.8-.9-.8-.9-1-.8-.8-1-.8-.8-1-1-.8-.8-.8-1-.9-.9-.8-.9-.9-1-.9-.8-.8-1-.8-1-.9-.9-.8-.9-.9-1-.8-.9-.8-1-.9-1-.8-.9-.8-1-.8-.9-.9-1-.8-1-.8-1-.8-1-.8-.9-.8-1-.8-1-.8-1-.8-1-.8-1-.8-1-.7-1-.8-1-.8-1-.8-1-.7-1-.8-1-.7-1-.8-1.1-.7-1-.8-1-.7-1-.7-1.1-.8-1-.7-1.1-.7-1-.7-1-.7-1.1-.7-1-.7-1.1-.7-1-.7-1.1-.7-1-.7-1.1-.7-1.1-.6-1-.7-1.1-.6-1-.7-1.1-.6-1.1-.7-1-.6-1.1-.6-1.1-.6-1-.7-1.1-.6-1.1-.6-1-.6-1.2-.5-1-.6-1.1-.6-1-.6-1.2-.5-1-.6-1.1-.5-1.1-.6-1-.5-1.2-.5-1-.6-1.1-.5-1.1-.5-1-.5-1.2-.5-1-.4-1.1-.5-1.1-.5-1-.4-1.2-.5-1-.4-1.1-.5-1.1-.4-1.1-.4-1-.4-1.2-.4-1-.4-1.1-.4-1.1-.4-1-.4-1.2-.3-1-.4-1.1-.3-1-.4-1.2-.3-1-.3-1.1-.3-1-.3-1.1-.3-1.1-.3-1-.3-1.1-.2-1.1-.3-1-.2-1.1-.3-1.1-.2-1-.2-1.1-.2-1-.2-1.1-.2-1-.2-1.1-.1-1-.2-1.1-.1-1-.2-1.1-.1-1-.1-1.1-.1-1-.1-1-.1-1.1v-1l-.1-1v-1l-.1-1.1v-16.4l.1-1.5V674l.1-1.4V671l.2-1.4v-1.4l.1-1.4v-1.4l.2-1.4v-1.4l.2-1.4v-1.4l.2-1.4.1-1.4.1-1.4.2-1.3V653l.2-1.4.2-1.3.1-1.4.2-1.3.2-1.4.1-1.3.2-1.4.2-1.3.2-1.3.2-1.4.2-1.3.3-1.3.2-1.4.2-1.3.2-1.3.3-1.3.3-1.3.2-1.3.3-1.4.3-1.3.3-1.3.2-1.3.3-1.3.4-1.3.3-1.3.3-1.3.3-1.3.4-1.3.3-1.3.4-1.3.4-1.3.3-1.3.4-1.3.4-1.3.4-1.3.4-1.3.5-1.3.4-1.3.4-1.3.5-1.3.4-1.3.5-1.3.5-1.3.5-1.3.5-1.3.5-1.4.5-1.3.5-1.3.5-1.3.6-1.3.5-1.3.6-1.4.6-1.3.6-1.3.6-1.3.6-1.4.6-1.3.6-1.4.7-1.3.6-1.4.7-1.3.6-1.4.7-1.3.7-1.4.7-1.3.7-1.4.7-1.4.8-1.4.7-1.4.8-1.3.8-1.4.7-1.4.8-1.4.8-1.4.8-1.5.9-1.4.8-1.4.9-1.4.8-1.5.9-1.4.9-1.5.9-1.4 1-1.5.8-1.4 1-1.5 1-1.5.9-1.5 1-1.5 1-1.5 1-1.5 1-1.5 1-1.5 1-1.6 1-1.5 1.1-1.5 1.1-1.6 1.1-1.6 1.1-1.5 1.1-1.6 1.2-1.6 1.1-1.6 1.2-1.6.7-1 .7-1 .6-.9.7-1 .7-1 .7-.9.7-1 .7-1 .6-1 .7-1 1.4-1.9 1.3-2 1.3-2 1.4-2 1.3-2 1.3-2 1.3-2 1.3-2.1 1.2-2 1.3-2.1 1.3-2 1.2-2.2 1.2-2 1.3-2.1 1.2-2 1.2-2.2 1.2-2 1.2-2.1 1.1-2.1 1.2-2.1 1.1-2.1 1.1-2.1 1.2-2 1-2.2 1.1-2 1.1-2.1 1-2.1 1.1-2 1-2.2 1-2 1-2 1-2.1 1-2 1-2.1.9-2 .9-2.1.9-2 .4-1 .5-1 .4-1 .4-1 .4-1 .5-1 .4-1 .4-1 .4-1 .4-1 .4-1 .4-1 .4-.9.3-1 .4-1 .4-.9.4-1 .3-.9.4-1 .3-.9.4-1 .3-.9.3-1 .4-.9.3-.9.3-1 .3-.8.3-1 .3-.9.3-.9.3-.9.3-.9.3-.9.3-.9.2-.9.3-.8.3-1 .2-.8.3-.9.2-.8.2-.9.3-.8.2-.9.2-.8.3-1.2.3-1.2.3-1.2.3-1.2.3-1.3.2-1.2.3-1.2.2-1.2.3-1.2.2-1.2.2-1.2.2-1.2.3-1.2.2-1.2.2-1.3.1-1.2.2-1.2.2-1.2.2-1.2.1-1.2.2-1.2.1-1.2.1-1.2.2-1.2v-1.2l.2-1.2V353l.2-1.2v-1.2l.1-1.2.1-1.1V347l.1-1.2v-1.2l.1-1.2v-2.3l.1-1.2V331.8l-.1-1.1v-1.2l-.1-1.1v-1.1l-.1-1.2-.1-1.1-.1-1.1-.1-1.2-.1-1-.1-1.2-.1-1.1-.1-1.1-.2-1.1-.1-1.1-.1-1.1-.2-1.1-.2-1.1-.1-1.1-.2-1.1-.2-1-.2-1.1-.1-1.1-.2-1-.3-1.1-.2-1-.2-1.1-.2-1-.2-1.1-.3-1-.2-1-.3-1-.3-1-.2-1-.3-1-.3-1-.3-1-.3-1-.3-1-.3-1-.3-1-.3-1-.4-.9-.3-1-.3-.9-.4-.9-.4-.9-.3-1-.4-.8-.4-1-.4-.8-.3-1-.4-.8-.5-.9-.4-.8-.4-.9-.4-.8-.4-.9-.5-.8-.4-.8-.5-.9-.4-.8-.5-.8-.5-.8-.4-.7-.5-.8-.5-.8-.5-.7-.5-.8-.5-.7-.6-.8-.5-.7-.5-.7-.5-.7-.6-.7-.5-.7-.6-.7-.5-.6-.6-.7-.6-.6-.6-.7-.6-.6-.5-.6-.6-.6-.2-.2-.3-.2-.2-.2-.2-.2-.2-.1-.2-.2-.2-.2-.2-.2-.2-.1-.3-.2-.2-.1-.2-.2-.2-.1-.3-.2h-.2l-.2-.2-.3-.1-.2-.2h-.3l-.2-.2-.3-.1-.2-.1-.3-.1-.2-.1-.3-.1-.2-.1h-.3l-.3-.2h-.2l-.3-.1-.2-.1h-.3l-.3-.1h-.3l-.2-.1-.3-.1h-.3l-.3-.1h-.5l-.3-.1h-.6l-.3-.1h-1.5l-.3-.1H99l-.6.1h-.6l-.6.1-.7.1H96l-.7.2h-.6l-.6.2-.7.1-.6.2-.7.1-.6.2-.7.1-.7.2-.6.2-.7.2-.6.2-.7.2-.7.2-.6.2-.7.2-.6.2-.7.3-.7.2-.6.3-.7.2-.6.3-.7.2-.7.3-.6.3-.7.2-.6.3-.7.3-.6.3-.7.3-.6.3-.6.3-.7.3-.6.3-.6.3-.6.3-.6.3-.7.3-.6.3-.6.3-1.2.6-1.1.7-1.2.6-1 .6-1.2.6-1 .6-1 .6-1 .6-1 .6-.9.6-.9.5-.8.5-.8.5-.8.5-.7.5-.7.4-.6.4-1 .8-1 .6-.5.4-.6.4-.1-.1h-.1v-.1l-.2-.1v-.1l-.1-.1-.1-.1v-.2h-.1l-.1-.2v-.2l-.1-.2-.1-.1v-.2l-.1-.2v-.2l-.1-.2v-.3l-.1-.2v-.3l-.1-.2v-.3l-.1-.2v-.6l-.1-.3v-.6l-.1-.4V264.5l-.1-.7V259.7l.1-.9v-.9l.2-.9v-1l.1-.4v-.5l.1-.5v-.5l.2-.5v-.5l.1-.5v-.5l.2-.5v-.5l.1-.5.1-.5.1-.5.1-.6.2-.5v-.5l.2-.6.1-.5.1-.5.2-.6v-.5l.2-.6.2-.5.1-.5.2-.6.1-.5.2-.6.1-.5.2-.6.2-.5.2-.6.2-.5.2-.6.1-.6.2-.5.3-.6.2-.5.2-.6.2-.5.2-.6.3-.5.2-.6.2-.5.3-.6.2-.5.3-.5.3-.6.2-.5.3-.6.3-.5.3-.5.3-.6.3-.5.3-.5.3-.5.3-.5.3-.6.4-.5.3-.5.3-.5.4-.5.3-.5.4-.5.4-.5.3-.5.4-.4.4-.5.4-.5.4-.5.4-.4.4-.5.4-.4.4-.5.5-.4.2-.3.3-.2.2-.3.3-.2.2-.2.3-.3.3-.2.3-.2.3-.2.3-.3.3-.2.4-.2.3-.2.3-.2.4-.2.3-.3.4-.2.3-.2.4-.2.4-.2.4-.2.4-.2.4-.2.4-.2.4-.2.4-.2.4-.1.4-.2.5-.2.4-.2.4-.2.5-.2.4-.1.5-.2.5-.2.4-.1.5-.2.5-.2.5-.1.5-.2.5-.2.5-.1.5-.2.5-.1.5-.2.5-.1.6-.2.5-.1.5-.2.6-.1 1-.3 1.2-.2 1.1-.3 1.2-.3 1.1-.2 1.2-.2 1.2-.3 1.2-.2 1.2-.2 1.3-.2 1.2-.2 1.3-.2 1.3-.1 1.3-.2 1.3-.2 1.3-.1 1.3-.2 1.4-.1 1.3-.1 1.4-.2h1.3l1.4-.2h1.4l1.4-.2h1.4l1.4-.1 1.4-.1h1.4l1.4-.1h1.4l1.5-.1h14.4l1.4.1h1.5l1.4.1 1.4.1 1.5.1h1.4l1.4.2h1.5l1.4.2 1.4.1 1.4.1 1.4.2 1.4.1 1.4.2 1.4.1 1.3.2 1.4.2 1.3.1 1.4.2 1.3.2 1.3.2 1.3.2 1.4.2 1.2.3 1.3.2 1.3.2 1.2.3 1.3.2 1.2.3 1.2.3 1.2.2 1.2.3 1.1.3 1.2.3 1 .3 1.2.3 1 .3 1.2.4.5.1.5.2.5.2.5.1.6.2.5.2.5.2.5.1.4.2.5.2.5.2.5.2.4.2.5.2.5.1.4.2.5.2.4.2.4.2.5.2.4.2.4.2.4.2.4.2.4.3.4.2.4.2.4.2.3.2.4.2.3.2.4.3.3.2.4.2.3.2.3.3.4.2.3.2.3.3.3.2.3.2.2.3.3.2.3.3.2.2.3.3.2.2.3.3.3.2.2.4.3.3.2.3.3.3.3.4.2.3.3.4.2.3.2.4.3.4.2.4.2.4.3.4.2.4.2.4.2.4.2.4.2.5.2.4.2.5.2.4.2.5.2.5.2.5.2.5.2.5.2.5.1.5.2.5.2.5.1.5.2.6.2.5.1.6.2.5.1.6.2.5.1.6.1.6.2.6.1.6.1.5.2.6.1.7.1.6.1.6.2.6v.6l.2.7v.6l.2.6v.7l.2.6v.7l.2.7v.6l.2.7v.7l.1.6.1.7v.7l.2 1.4.2 1.4v1.4l.2 1.5.1 1.4.1 1.5.1 1.5v1.4l.1 1.5v1.6l.1 1.5v1.5l.1 1.6V284l-.1 1.6v1.7l-.1 1.6v1.6l-.2 1.6v1.7l-.1 1.6-.1 1.6-.1 1.6-.1 1.7-.1 1.6-.2 1.6v1.7l-.2 1.6-.2 1.6-.1 1.6-.2 1.6-.1 1.7-.2 1.6-.1 1.6-.2 1.5-.2 1.6-.2 1.6-.1 1.6-.2 1.5-.2 1.6-.2 1.5-.2 1.6-.2 1.5-.2 1.5-.2 1.5-.3 1.5-.2 1.5-.2 1.4-.2 1.5-.3 1.4-.2 1.4-.2 1.4-.3 1.4-.2 1.4-.2 1.3-.3 1.3-.2 1.4-.3 1.2-.2 1.3-.3 1.3-.2 1.2-.3 1.2-.2 1.2-.3 1.2-.2 1.1-.3 1.1-.2 1.1-.3 1-.2 1.1-.3 1-.2 1-.3 1-.3 1-.2.8-.3 1-.2.8-.3.8-.2.8-.3.7-.2.7-.3.7-.2.7-.3.6-.2.6-.2.6-.2.2v.3l-.2.2-.1.3-.1.2-.1.2-.2.2v.2l-.2.2-.1.2-.4.6-.3.6-.4.6-.3.6-.3.6-.4.5-.3.6-.3.6-.3.6-.2.6-.3.6-.3.5-.2.6-.3.6-.2.6-.2.6-.3.5-.2.6-.2.6-.2.6-.1.6-.2.5-.2.6-.1.6-.2.6-.1.5-.2.6v.6l-.2.6-.1.5-.1.6-.1.6-.1.5v.6l-.1.6-.1.5v.6l-.1.6v1.1l-.1.6v5l.1.5v.6l.1.5.1.6v.5l.1.6.1.5.1.5.1.6.1.5.1.6.1.5.1.5.2.6.1.5.1.5.2.6.1.5.2.5.1.6.2.5.2.5.1.5.2.6.2.5.2.5.2.5.2.5.2.5.2.6.2.5.2.5.2.5.2.5.3.5.2.5.2.5.3.5.2.5.3.5.2.5.3.5.3.5.2.5.3.5.3.4.2.5.3.5.3.5.3.5.3.4.3.5.3.5.3.5.3.4.3.5.3.5.3.4.3.5.3.5.3.4.4.5.3.4.3.5.7.9.7.9.6.8.7 1 .7.8.7.8.7.9.7.8.7.8.8.8.7.9.7.7.8.8.7.8.7.8.8.7.7.8.8.7.7.7.7.8.8.7.7.7.8.6.7.7.7.7.7.6.8.7.7.6.7.6.7.6.7.6.7.6.7.5.7.6.6.5.7.6.7.5.6.5.6.5.6.4.7.5.5.5.6.4 1.2.8 1 .8 1 .7 1 .7.9.6.7.5.8.5.6.4.6.4.4.3.7.4.2.1 581.7-114h1.1l.4-.1h.4l.4-.1h.4l.4-.2h.4l.4-.1.4-.1.3-.1.4-.2.4-.1.4-.1.4-.2.4-.1.4-.2.4-.1.4-.2.3-.2.4-.2.4-.2.4-.2.4-.2.4-.2.4-.2.4-.3.3-.2.4-.3.4-.2.4-.3.4-.2.4-.3.3-.3.4-.3.4-.3.4-.3.3-.3.4-.3.4-.3.4-.3.3-.4.4-.3.4-.3.4-.4.3-.3.4-.4.4-.4.3-.3.4-.4.4-.4.3-.4.4-.4.3-.4.4-.4.4-.4.3-.4.4-.4.3-.4.4-.4.3-.5.4-.4.3-.4.4-.5.3-.4.4-.5.3-.4.3-.5.4-.4.3-.5.3-.5.4-.5.3-.4.3-.5.4-.5.3-.5.3-.5.3-.5.3-.5.4-.5.3-.5.3-.5.3-.5.3-.5.3-.5.3-.5.3-.6.3-.5.3-.5.3-.5.3-.6.3-.5.2-.6.3-.5.3-.5.3-.6.3-.5.2-.6.3-.5.3-.6.2-.5.3-.6.3-.5.5-1.1.5-1.1.5-1.2.4-1 .5-1.2.4-1.1.3-.6.2-.6.2-.5.2-.6.2-.6.2-.6.2-.5.2-.6.2-.6.2-.5.2-.6.2-.6.2-.5.1-.6.2-.6.2-.5.1-.6.2-.5.2-.6.1-.6.2-.5.1-.6.2-.6.1-.5.1-.6.2-.5.1-.6.1-.5.1-.6.2-.5v-.6l.2-.5v-.6l.2-.5v-.6l.2-.5v-.5l.1-.6.1-.5v-.5l.2-.5v-1.1l.1-.5.1-.5v-1.1l.1-.5v-1l.1-.5V285.1l-.1-.5v-.4l-.1-.5v-.4l-.2-.4v-.4l-.1-.5v-.4l-.2-.4v-.4l-.1-.4-.1-.4-.1-.4-.2-.4v-.3l-.2-.4-.1-.4-.2-.4-.1-.3-.1-.4-.2-.3-.1-.4-.2-.3-.2-.3-.1-.3-.2-.4-.2-.3-.2-.3-.2-.3-.2-.3-.2-.3-.2-.2-.2-.3-.3-.3-.2-.2-.2-.3-.3-.3-.2-.2-.3-.2-.3-.3-.2-.2-.3-.2-.3-.2-.3-.2-.3-.2-.3-.2-.3-.1-.3-.2-.3-.2-.3-.1-.4-.2h-.3l-.3-.2-.4-.1-.4-.2h-.3l-.4-.1-.4-.1-.4-.1h-.4l-.4-.1-.4-.1h-.8l-.4-.1H860.2l-.5.1h-.5l-.5.1-.5.1h-.1l-.1-.1v-.1l-.1-.1v-.2l-.1-.2V267.1l-.1-.2v-4.5l.1-1 .1-1.1.1-1.1.2-1.2.1-1.3.2-1.2.1-1.4.2-1.4.2-1.4.3-1.5.2-1.6.3-1.5.2-1.6.3-1.7.3-1.6.4-1.7.3-1.7.4-1.8.2-.9.1-.8.2-1 .2-.8.2-1 .3-.8.2-1 .2-.8.2-1 .2-.9.3-.9.2-.9.2-.9.3-1 .2-.8.3-1 .2-.9.3-.9.3-1 .2-.8.3-1 .3-.9.3-.9.3-.9.2-.9.3-.9.3-.9.3-.9.4-.9.3-.9.3-.8.3-1 .3-.8.4-.9.3-.8.3-.9.4-.8.3-.9.4-.8.3-.8.4-.9.4-.8.3-.8.4-.8.4-.8.4-.7.4-.8.4-.8.3-.7.5-.7.4-.8.4-.7.4-.7.4-.7.4-.6.4-.7.5-.7.4-.6.5-.6.4-.6.5-.6.2-.3.2-.3.2-.3.3-.3.2-.3.2-.2.3-.3.2-.3.2-.2.3-.3.2-.3.2-.2.3-.3.2-.2.3-.3.3-.3.4-.3.3-.3.3-.3.3-.3.3-.2.4-.3.3-.3.3-.3.4-.2.3-.3.4-.3.3-.2.4-.3.3-.2.4-.3.3-.2.4-.3.4-.2.3-.2.4-.3.4-.2.4-.2.4-.2.3-.3.4-.2.4-.2.4-.2.4-.2.4-.2.4-.2.4-.2.4-.2.4-.2.4-.2.4-.2.5-.1.4-.2.4-.2.4-.2.4-.1.5-.2.4-.2.4-.1.5-.2.4-.1.4-.2.5-.2.4-.1.5-.1.4-.2.4-.1.5-.2h.4l.5-.2.5-.1.4-.2h.5l.4-.2 1-.2.9-.2 1-.3.9-.2 1-.1.9-.2 1-.2 1-.1.9-.2 1-.1 1-.1 1-.1 1-.1 1-.1 1-.1h1l1-.1h1l1-.1h1l1-.1h3zm-576 758.3l-1.2 1 2.5-.4-.6-.4-.5-.4-.1.2zm12.6-54.5h-.4l-.1.1h-.4l-.2.1-.1.1h-.2l-.1.1-.2.1-.2.1-.1.1-.2.1-.1.2-.1.1-.2.1-.1.2-.1.2-.2.1v.2l-.2.2-.1.2-.1.2-.1.2-.2.2v.2l-.2.3v.2l-.2.3v.3l-.1.2-.1.3-.1.3v.3l-.2.4v.3l-.1.3v.4l-.1.3-.1.4v.4l-.1.4v.4l-.1.4v.4l-.1.4v.5l-.1.4v1l-.1.4v1l-.1 1v2.2l-.1 1.3v1.6l-.3.2-.2.2h.2l.3.2v2.1l.1.4v1.3l.1.4v.4l.1.4v.8l.1.3v.4l.1.4v.3l.1.4.1.3v.4l.1.3.1.4v.3l.2.3v.3l.1.3v.3l.2.3v.3l.1.3.1.3.1.3.1.3.1.2.1.3.1.2.1.3.1.2.1.3.1.2.1.2.1.2.2.3v.2l.2.2.1.2.1.2.2.1v.2l.2.2.1.2.2.1v.2l.2.1.2.2v.1l.2.1.2.2h.1l.1.2h.2l.1.2h.2l.1.2h.2l.1.1.2.1h.1l.2.1h.1l.2.1H369.5l.2.1H371l.2-.1h.1l.2-.1h.2l.1-.1h.2l.2-.2h.2l.1-.1.2-.1.2-.1.1-.2h.2l.2-.2.2-.1.1-.2.2-.1.2-.2.2-.1.1-.2.2-.2.2-.1.2-.2.1-.2.2-.2.2-.2.2-.2.1-.2.2-.3.2-.2.2-.2.1-.3.2-.2.2-.3.2-.3.1-.3.2-.2.2-.3.1-.3.2-.3.2-.3.2-.3v-.3l.2-.2.1-.3.1-.2.1-.3.2-.3v-.2l.1-.3.1-.2.1-.3v-.3l.2-.3v-.3l.1-.2v-.3l.1-.3v-.3l.1-.3v-.3l.1-.3v-.6l.1-.3V894l.1-.3V890.8l-.1-.4v-.6l-.1-.3v-.6l-.1-.4v-.3l-.1-.3-.2-.6v-.7l-.2-.6-.2-.6-.1-.7-.2-.6-.2-.6-.2-.6-.2-.6-.2-.6-.2-.6-.2-.6-.3-.5-.2-.6-.3-.5-.3-.6-.1-.2-.1-.3-.2-.2-.1-.3-.2-.2-.1-.3-.2-.2-.1-.3-.1-.2-.2-.2-.2-.3-.1-.2-.2-.2-.1-.2-.2-.2-.1-.2-.2-.2-.2-.2-.1-.2-.2-.2-.2-.2-.1-.2-.2-.1-.2-.2-.1-.2-.2-.1-.2-.2-.1-.1-.2-.2h-.2l-.2-.2-.1-.1-.2-.2h-.2l-.2-.2h-.2l-.1-.2h-.2l-.2-.1-.2-.1h-.2l-.1-.1h-.2l-.2-.1h-.2l-.2-.1H368.1zm465-90h-.1l-.2.1h-.3l-1.8.4-2.4.5-3 .6-3.3.7-3.9.8-4.3.9-10 2-11.4 2.3-13 2.6-14.2 2.8-15.5 3-16.4 3.4-17.4 3.4-36.8 7.3-38.7 7.6L601 827l-39 7.7-37.5 7.4-34.8 6.9-31 6-46 9.2-17.5 3.4v.4l.1 1.2.1.8v1l.2 1.1v1.3l.2 1.3.1 1.4.2 1.6.2 1.5.2 1.7v.8l.2.8v.9l.2.8.1.9.1.8.1.9.2.8.1.8.2.9.1.8.1.8.2.8.2.8.1.8.2.7.2.8.1.7.2.7.2.6.1.4.1.3.1.3.1.3.1.3.1.3.1.3.1.2.1.3.1.2.1.3.1.2.2.3v.2l.2.2.1.2.1.2.1.2.2.1v.2l.2.1.1.2.1.1.2.1.1.1.1.1.2.1.2.1h.2l.2.1h.5l.2-.1h.3l1-.3 1.6-.3 2.2-.4 5.9-1.2 7.9-1.6 9.7-1.9 11.5-2.2 27.3-5.4 32.4-6.3 36-7.1 38.7-7.6 40-7.8 20-4 20-3.9 19.7-3.8 19.3-3.8 18.6-3.7 18-3.6 17.1-3.3 16-3.2 15-3 6.9-1.4 6.6-1.3 6.2-1.3 5.8-1.1 5.4-1.1 5-1 4.6-1 4-.8 3.7-.8 3-.6 1.4-.3 1.2-.3 1.1-.2 1-.3.8-.1.6-.2.5-.1.2-.1h.2l.3-.1.2-.1.3-.1h.2l.3-.2h.2l.3-.2h.2l.2-.2h.3l.2-.2h.2l.2-.2h.3l.2-.2.2-.1.2-.1.2-.1.2-.2h.2l.1-.2.2-.1.2-.1.2-.2.2-.1.1-.1.2-.2h.2l.1-.2.2-.2.1-.1.2-.1.1-.2.2-.1.1-.2.1-.1.2-.1.1-.2.1-.1.2-.2v-.1l.2-.2.1-.2.1-.1.1-.2.1-.1.1-.2.1-.1.1-.2.1-.2.1-.1v-.2l.2-.2v-.1l.2-.4.1-.3.2-.4v-.3l.2-.4v-.3l.2-.4v-.3l.1-.4v-.7l.1-.4v-3.1l-.1-.4v-.4l-.1-.4-.1-.4-.1-.3-.1-.4v-.4l-.2-.4-.1-.4-.1-.4-.2-.4-.1-.4-.1-.4-.2-.4-.1-.4-.2-.3-.2-.4-.1-.4-.2-.4-.2-.4-.2-.4-.2-.3-.2-.4-.2-.4-.2-.3-.2-.4-.2-.4-.2-.3-.3-.4-.2-.3-.2-.4-.3-.3-.2-.4-.2-.3-.3-.3-.2-.4-.3-.3-.3-.3-.2-.3-.3-.3-.2-.3-.3-.3-.3-.3-.2-.3-.3-.3-.3-.2-.2-.3-.3-.3-.3-.2-.2-.3-.3-.2-.3-.3-.3-.2-.2-.2-.3-.2-.3-.2-.3-.2-.2-.2-.3-.2-.3-.1-.2-.2-.3-.2-.3-.1-.2-.1-.3-.2-.3-.1-.2-.1-.3-.1-.2-.1h-.3l-.2-.1-.3-.1h-.2l-.3-.1H833.2zm96.5-593H927.2l-.9.1h-.8l-.8.1h-.8l-.8.1-.8.1h-.7l-.8.2h-.8l-.7.2h-.8l-.7.2-.7.1-.7.1-.7.2-.7.1-.7.2-.7.1-.7.2h-.3l-.3.2h-.3l-.4.1-.3.1-.3.1-.3.1-.3.1-.3.1-.3.1-.3.1-.3.1-.3.1-.3.1-.3.1-.2.1-.3.1-.3.1-.3.1-.2.1-.3.2h-.3l-.2.2h-.3l-.2.2-.3.1-.2.1-.2.2h-.3l-.2.2-.2.1-.3.1-.2.2h-.2l-.2.2-.2.1-.3.2h-.2l-.2.2-.2.1-.2.2h-.2l-.1.2-.2.1-.2.2-.2.1-.2.1-.1.2-.2.1-.2.1-.1.2h-.2l-.2.2-.1.2h-.2l-.1.2-.2.2-.1.1-.1.1-.2.2-.1.1-.1.1-.1.1-.1.1-.1.1-.1.2h-.1l-.1.2-.1.1-.2.2v.1l-.2.2-.4.4-.2.4-.3.4-.2.4-.3.4-.3.4-.3.4-.2.5-.3.5-.3.5-.3.5-.3.6-.3.5-.3.6-.3.6-.3.6-.3.6-.3.6-.3.7-.3.6-.3.7-.3.7-.2.6-.3.8-.3.7-.3.7-.3.7-.3.8-.2.7-.3.8-.3.7-.3.8-.2.8-.3.8-.3.8-.2.7-.3.9-.2.8-.3.8-.2.8-.3.8-.2.8-.3.9-.2.8-.2.8-.3.8-.2.9-.2.8-.2.8-.2.9-.3.8-.2.8-.2.9-.2.8-.2.8-.1.8-.2.9-.2.8-.2.8-.2.8-.1.8-.4 1.6-.3 1.6-.3 1.6-.3 1.5-.3 1.5-.2 1.5-.2 1.4.8.5.8.5.8.5.7.5.8.5.7.6.7.6.7.6.7.6.6.6.7.7.6.6.6.7.5.6.6.7.5.7.5.7.5.7.5.7.4.7.4.7.4.8.4.7.4.7.3.7.4.7.3.8.3.7.2.7.3.7.3.8.2.7.2.7.2.7.2.7.2.7.2.8.1.7.2.7.1.7.1.7.1.7.1.7.1.7.1.7v.7l.2.7v1.4l.1.7V287.4l.1.7v4.1l-.1.7V294.2l-.1.7-.1.7v.7l-.1.7-.1.7v.6l-.2.7v.7l-.2.7v.7l-.2.7v.6l-.2.7-.1.7-.1.7-.2.7-.1.6-.1.7-.2.7-.1.7-.2.7-.1.6-.2.7-.2.7-.1.7-.2.6-.2.7-.2.7-.2.7-.2.7-.2.6-.2.7-.2.7-.2.7-.2.6-.2.7-.2.7-.2.7-.3.6-.2.7-.2.7-.3.7-.2.6-.2.7-.3.7-.2.6-.3.7-.3.7-.5 1.3-.5 1.3-.6 1.3-.6 1.4-.5 1.3-.6 1.2-.4.7-.3.7-.3.6-.3.7-.3.6-.3.6-.3.7-.4.6-.3.7-.3.6-.4.6-.3.7-.4.6-.3.6-.4.6-.3.7-.4.6-.3.6-.4.6-.4.6-.3.6-.4.7-.4.6-.4.6-.3.6-.4.6-.4.6-.4.6-.4.5-.4.6-.4.6-.4.6-.4.6-.4.6-.5.5-.4.6-.4.6-.4.5-.5.6-.4.5-.4.6-.5.6-.4.5-.5.5-.4.6-.5.5-.5.6-.4.5-.5.5-.5.5-.4.5-.5.6-.5.5-.5.5-.5.5-.5.5-.5.5-.5.5-.5.4-.6.5-.5.5-.5.5-.6.4-.5.5-.6.4-.5.5-.6.4-.6.5-.5.4-.6.4-.6.5-.6.4-.6.4-.6.4-.6.4-.7.4-.6.4-.6.3-.7.4-.6.4-.7.3-.7.4-.7.3-.7.3-.7.3-.7.3-.7.3-.7.3-.8.3-.7.3-.8.2-.8.2-.7.3-.8.2-.8.2-.8.1-.9.2-.8.1-.8.2h-.9l-.8.2h-.9l-.8.1h1L254.5 496.7h-7.8l-7.2-2.8-.3-.1-.8-.6-.6-.3-.6-.5-.8-.5-.8-.5-1-.6-1-.7-1-.8-1.1-.8-1.2-.9-1.3-.9-.7-.5-.6-.5-.7-.5-.7-.5-.7-.6-.7-.6-.8-.5-.7-.6-.8-.6-.7-.7-.8-.6-.8-.6-.8-.7-.7-.7-.9-.7-.8-.7-.8-.7-.8-.7-.8-.8-.9-.7-.8-.8-.8-.8-.9-.8-.8-.8-.9-.8-.8-.9-.9-.8-.8-1-.9-.8-.8-.9-.9-1-.8-.8-.9-1-.8-1-.9-.9-.8-1-.8-1-.9-1-.8-1-.8-1-.8-1.1-.8-1-.8-1.1-.4-.6-.4-.6-.4-.5-.4-.6-.4-.5-.4-.6-.3-.6-.4-.5-.4-.6-.4-.6-.4-.6-.3-.6-.4-.6-.3-.6-.4-.6-.4-.6-.3-.6-.4-.6-.3-.6-.4-.6-.3-.7-.3-.6-.4-.6-.3-.7-.3-.6-.3-.7-.3-.6-.4-.7-.3-.6-.3-.7-.3-.6-.2-.7-.3-.7-.3-.7-.3-.7-.3-.6-.2-.7-.3-.7-.2-.7-.3-.7-.2-.8-.3-.7-.2-.7-.2-.7-.2-.7-.2-.8-.2-.7-.2-.7-.2-.8-.2-.7-.2-.8-.1-.7-.2-.8-.2-.8-.1-.7-.1-.8-.2-.8v-.8l-.2-.7v-.8l-.2-.8v-.8l-.1-.8-.1-.8V408l-.1-.8v-6.6l.1-.8v-.9l.2-.8v-.8l.2-.9v-.8l.2-.9.1-.8.2-.8.2-.9.1-.8.2-.9.2-.8.2-.8.2-.9.3-.8.2-.9.3-.8.2-.8.3-.9.3-.8.3-.9.3-.8.3-.8.4-.9.3-.8.4-.8.3-.8.4-.9.4-.8.4-.8.5-.8.4-.8.4-.8.5-.8.4-.8.5-.8.5-.8.2-.4v-.2l.2-.2.1-.3.2-.4.1-.4.2-.5.2-.6.2-.6.1-.6.2-.7.3-.7.2-.7.2-.8.2-.8.2-1 .2-.8.3-1 .2-.9.2-1 .3-1 .2-1 .2-1 .3-1.2.2-1 .2-1.2.3-1.2.2-1.2.2-1.2.2-1.2.3-1.3.2-1.2.2-1.3.2-1.3.3-1.4.2-1.3.2-1.4.2-1.3.2-1.4.2-1.4.2-1.4.2-1.5.2-1.4.2-1.5.2-1.4.2-1.5.2-1.5.2-1.5.1-1.5.2-1.5.2-1.5.1-1.5.2-1.5.2-1.6.1-1.5.1-1.6.2-1.5.1-1.5.1-1.6.2-1.5v-1.6l.2-1.5v-1.6l.2-1.5v-1.6l.2-1.5v-1.6l.1-1.5v-1.5l.1-1.6v-1.5l.1-1.5v-3l.1-1.5V269l-.1-1.4v-1.4l-.1-1.4-.1-1.3v-1.3l-.2-1.4v-1.2l-.2-1.3V257l-.2-1.2-.1-1.2v-.6l-.2-.6v-.6l-.1-.5v-.6l-.2-.6v-.5l-.1-.6-.1-.5v-.6l-.2-.5v-.5l-.1-.5-.1-.5-.1-.5-.1-.5-.1-.5-.1-.5-.1-.4-.1-.5-.1-.4-.1-.5-.1-.4-.1-.4-.1-.4-.1-.4-.2-.4v-.4l-.2-.4v-.3l-.2-.4-.1-.3-.1-.4-.1-.3-.1-.3-.1-.3-.1-.3-.1-.2-.2-.3v-.3l-.2-.2v-.2l-.2-.2v-.2l-.1-.2-.1-.2-.1-.1v-.2l-.2-.1v-.2h-.1v-.2h-.1v-.1h-.1v-.1h-.1v-.1h-.2v-.1l-.2-.1-.2-.2h-.1l-.2-.1-.2-.1-.1-.1-.2-.1-.2-.2h-.2l-.2-.2h-.2l-.3-.2-.2-.1-.3-.1-.2-.2-.3-.1-.3-.1-.3-.1-.3-.2-.3-.1-.3-.1-.3-.2-.4-.1-.3-.1-.3-.2h-.4l-.4-.2-.3-.2h-.4l-.4-.2-.4-.1-.4-.2-.4-.1-.4-.1-.9-.3-.8-.3-1-.2-.9-.3-1-.2-.9-.2-1-.3-1-.2-1-.3-1.1-.2-1-.2-1.2-.2-1-.2-1.2-.2-1.1-.2-1.2-.2-1.2-.2-1.1-.2-1.2-.2-1.3-.1-1.2-.2-1.2-.1-1.3-.2-1.2-.1-1.3-.2-1.2-.1-1.3-.1-1.3-.1-1.3-.1-1.3-.1-1.3-.1-1.3-.1-1.3-.1h-1.4l-1.3-.1-1.3-.1h-1.3l-1.4-.1h-2.6l-1.4-.1h-10.6l-1.3.1H123l-1.3.1h-1.3l-1.3.1-1.2.1h-1.3l-1.2.2H114l-1.2.2h-1.2l-1.3.2-1.2.1-1.1.2-1.2.1-1.2.1-1.1.2-1.1.2-1.2.1-1 .2-1.1.2-1 .1-1.1.2-1 .2-1 .2-1 .2-1 .2-.9.2-.9.3-.9.2H91l-.4.2-.4.1-.4.1-.4.1-.4.2h-.4l-.4.2-.4.1-.3.1-.4.1-.3.2h-.4l-.3.2-.3.1-.3.1-.3.1-.3.1-.3.2h-.3l-.3.2-.2.1-.3.1-.2.1-.2.1-.3.1-.2.1-.2.1-.2.1-.1.1-.2.1h-.2l-.1.2h-.1l-.2.1-.2.2H81l-.1.1h-.1l-.1.2-.3.3-.2.2v.1h.2l.8-.3.9-.3.9-.3.8-.2 1-.2.8-.3.9-.2.9-.2.9-.2.9-.2 1-.2.8-.1 1-.2 1-.1.9-.2h1l.9-.2h1l1-.1h1l1-.1h4.6l.6.1h.5l.5.1.6.1h.5l.6.1.5.1.6.1.5.1.6.1.5.1.6.2.5.1.6.1.6.2.5.2.6.1.6.2.5.2.6.2.6.2.5.2.6.2.5.3.6.2.6.3.5.3.6.3.6.3.5.3.6.3.5.3.6.3.5.4.5.4.6.3.5.4.5.4.5.4.5.4.5.5.5.4.5.4.5.5.5.4.8.9.8.8.7.8.8.8.8.9.7.9.7.8.8.9.7.9.7.9.6.9.7.9.7 1 .7.9.6.9.6 1 .7.9.6 1 .6 1 .6.9.6 1 .5 1 .6 1 .6 1 .5 1 .5 1 .6 1 .5 1 .5 1.1.5 1 .5 1.1.5 1 .4 1.1.5 1.1.5 1 .4 1.2.4 1 .5 1.2.4 1 .4 1.2.4 1 .4 1.2.4 1.1.3 1.2.4 1 .3 1.2.4 1.2.3 1.1.4 1.2.3 1.1.3 1.2.3 1.2.3 1.2.3 1.1.3 1.2.2 1.2.3 1.2.2 1.2.3 1.2.2 1.2.2 1.2.3 1.2.2 1.3.2 1.2.2 1.2.2 1.2.1 1.3.2 1.2.2 1.2.1 1.3.2 1.2.1 1.3.1 1.2.1 1.3.2 1.3v1.2l.2 1.3v1.3l.1 1.3v1.2l.2 1.3V332.5l.1 1.3v10.4l-.1 1.3v1.3l-.1 1.3v1.3l-.2 1.4v1.3l-.1 1.3-.2 1.3v1.3l-.2 1.4-.1 1.3-.2 1.3-.1 1.4-.2 1.3-.1 1.3-.2 1.4-.2 1.3-.2 1.3-.2 1.4-.2 1.3-.2 1.3-.2 1.4-.2 1.3-.3 1.3-.2 1.4-.3 1.3-.3 1.4-.2 1.3-.3 1.3-.3 1.4-.3 1.3-.3 1.3-.3 1.4-.4 1.3-.3 1.3-.3 1-.2 1-.3.9-.2 1-.3.9-.3 1-.2 1-.3.9-.3 1-.3 1-.3 1-.3.9-.3 1-.4 1-.3 1-.3 1-.3 1-.4 1-.3 1-.4 1-.3 1-.4 1-.4 1-.3 1-.4 1-.4 1-.4 1-.4 1-.4 1.1-.4 1-.4 1-.4 1-.4 1.1-.4 1-.4 1.1-.5 1-.4 1.1-.4 1-.5 1.1-.4 1-.5 1.1-.4 1-.5 1.1-.5 1.1-.9 2.1-1 2.1-1 2.2-1 2.1-1 2.2-1 2.1-1 2.2-1 2.1-1.1 2.2-1.1 2.2-1.1 2.2-1.2 2.1-1 2.2-1.2 2.2-1.2 2.2-1.2 2.1-1.2 2.2-1.2 2.2-1.2 2.2-1.2 2.1-1.2 2.2-1.3 2.2-1.3 2.1-1.2 2.2-1.3 2.2-1.3 2.1-1.3 2.2-1.4 2.1-1.3 2.1-1.3 2.2-1.4 2.1-1.3 2.1-1.4 2.1-1.4 2.1-1.4 2.1-1.4 2-1.4 2.1-.7 1-.7 1.1-.7 1-.7 1-.8 1-.7 1-.7 1.1-.7 1-.7 1-.7 1-1.2 1.6-1 1.5-1.2 1.6-1 1.5-1.1 1.5-1 1.5-1.1 1.5-1 1.5-1 1.5-1 1.4-1 1.5-1 1.5-1 1.4-1 1.4-.8 1.5-1 1.4-.9 1.4-.9 1.4-.8 1.4-1 1.4-.8 1.4-.8 1.3-.8 1.4-.9 1.4-.8 1.3-.8 1.4-.7 1.3-.8 1.3-.8 1.4-.7 1.3-.7 1.3-.8 1.3-.7 1.3-.7 1.3-.7 1.3-.6 1.3-.7 1.2-.6 1.3-.7 1.3-.6 1.2-.6 1.3-.6 1.2-.6 1.3-.6 1.2-.6 1.3-.6 1.2-.5 1.2-.6 1.2-.5 1.3-.6 1.2-.5 1.2-.5 1.2-.5 1.2-.5 1.2-.4 1.2-.5 1.2-.5 1.2-.4 1.2-.5 1.2-.4 1.2-.4 1.2-.4 1.1-.5 1.2-.4 1.2-.3 1.2-.4 1.2-.4 1.1-.4 1.2-.3 1.2-.4 1.2-.3 1.1-.3 1.2-.4 1.2-.3 1.2-.3 1.2-.3 1.1-.3 1.2-.3 1.2-.3 1.2-.2 1.2-.3 1.1-.3 1.2-.2 1.2-.3 1.2-.2 1.2-.2 1.2-.3 1.2-.2 1.2-.2 1.2-.2 1.2-.2 1.2-.2 1.2-.2 1.3-.2 1.2-.1 1.2-.2 1.2-.2 1.3-.1 1.2-.2 1.3-.1 1.2-.2 1.3v1.2l-.2 1.3-.1 1.2-.1 1.3-.2 1.3v1.3l-.2 1.3v1.3l-.1 1.3-.1 1.3-.1 1.3v1.4l-.1 1.3-.1 1.3v1.4l-.1 1.3v1.4l-.1 1.4v4.1L30 683V694.2l.1.8v.8l.1.8.1.9.1.8v.9l.2.8.1.8.1.9.1.9.2.8.1.9.2.9.1.8.2 1 .2.8.2.9.2.9.2.9.2.9.2.9.3.9.2.9.3 1 .2.8.3 1 .2.9.3.9.3 1 .3.9.3.9.3 1 .4.9.3 1 .3.9.4 1 .3.9.4 1 .4.9.4 1 .3.9.4 1 .4 1 .5.9.4 1 .4 1 .4.9.5 1 .4 1 .5 1 .4.9.5 1 .5 1 .5 1 .5 1 .5.9.5 1 .5 1 .5 1 .5 1 .6.9.5 1 .5 1 .6 1 .5 1 .6 1 .6 1 .6.9.5 1 .6 1 .6 1 .6 1 .6 1 .6.9.7 1 .6 1 .6 1 .6 1 .7.9.6 1 .7 1 .6 1 .7.9.7 1 .6 1 .7.9.7 1 .7 1 .6.9.7 1 .7 1 .7.9.8 1 .7.9.7 1 .7.9.7 1 .7.9.8 1 .7.9.8 1 .7.9.7.9.8 1 .8.8.7 1 .8.9.7 1 .8.8.8 1 .7.9.8.9.8.9.8.9.8.9.8.9.7.9.8.9.8.8.8 1 .8.8.8.9.8.8.8 1 .8.8.9.8.8.9.8.8.8.9.8.8.8.9.8.8.9.8.8.8.8.9.8.8.9.8.8.8.8.8.8.8.9.8.8.8.8.7.9.8.8.8.8.8.9.7.8.8.8.7.8.8.9.7.8.7.8.8.9.7.8.7.8.7.9.7.8.7.8.7.8.7.9.7.8.6.8.7.8.7.8.6.9.7.8.6.8.6.8.7.8.6.8.6.8.6.8.6.9.6.8.6.8.6.7.5.8.6.8.6.8.5.8.6.8.5.8.5.7.5.8.5.8.6.7.5.8.4.8.5.7.5.8.5.7.4.8.5.7.4.7.4.8.5.7.4.7.4.7.4.7.4.7.4.7.3.7.4.7.4.7.3.6.3.7.4.7.3.6.3.7.3.6.3.6.3.6.3.7.2.6.3.6.2.6.3.5.2.6.2.6.3.5.2.6.2.5.1.6.2.5.2.5.1.5.2.5.1.4.2h.5l.4.2.5.1.4.1h.4l.4.2h.4l.4.1h.3l.4.1h.6l.3.1h2.1l2.8-.1 3.3-.2 3.9-.3 4.3-.3 4.6-.2 5-.3 5.4-.3 5.6-.4 5.8-.3 6-.3 6.3-.4 6.3-.3 6.4-.4 6.5-.3 6.4-.3 6.5-.4 6.3-.3 6.3-.3 6-.3 6-.3 5.7-.2 5.5-.3 5.1-.2 4.8-.2 2.3-.1h2.2l2-.2h3.9l1.7-.1h1.7l1.5-.1H331.3l.8.1 1 .1 1.5.3 1.5.3 1.5.5 1.3.6.9.4.9.4.8.5.7.4.8.5.6.4.7.5.6.5.3-.8.4-.7.3-.8.4-.7.5-.8.4-.8.5-.8.6-.8.6-.8.7-.8.7-.8.8-.8.8-.7.9-.8 1-.7.9-.7 1-.7 1.1-.6 1.1-.5 1.2-.5 1.2-.5 1.1-.3 1.2-.3 1.2-.3 1.2-.2 1.1-.1h1.1l1-.1h2.1l1 .2 1 .1 1 .2.9.2.9.2.9.3.8.3.9.3.8.3.7.3.8.4.6.3 3.7-3.2 6.9-2.7 17.4-3.5 46.1-9 31-6.2 34.8-6.8 37.5-7.4 39-7.7 39.4-7.8 38.6-7.7 36.8-7.2 17.4-3.5 16.5-3.3 15.4-3 14.3-2.9 12.9-2.5 11.5-2.4 9.9-2 4.3-.8 3.8-.8 3.4-.7 2.8-.6 2.4-.5 2.1-.4 1-.2 1.4-.2h5l1.1.2 1 .1 1.1.3 1 .2 1 .3.9.2.8.4.9.3.8.3.7.4.8.3.7.4.7.4.6.4.7.3.6.4.6.4.6.5.6.4.6.4.4.3.1-.2.3-.6.3-.5.3-.5.3-.6.3-.5.4-.6.3-.5.4-.6.5-.6.4-.6.5-.6.6-.5.5-.6.6-.6.6-.6.7-.6.7-.5.8-.6.8-.5.8-.5.9-.5.9-.4.9-.5.8-.3.6-.2.5-.2.6-.2.6-.2.6-.2.6-.2.7-.2.7-.2.7-.1.8-.2.9-.2.8-.1 1-.1 1-.1h1l1-.1h2.3l1.1.2h.7l.7.2.6.1.6.1.6.2.7.2.6.1.6.2.7.3.6.2.6.3.6.2.7.3.6.3.5.3.6.3.6.4.6.3.5.4.5.4.5.4.5.4.5.3.5.5.5.4.4.3.3-.6.4-.7.4-.8.4-.8.5-.8.6-.9.6-.8.7-.9.8-.9.8-.8 1-1 1-.8 1.1-.8 1.2-.8 1.2-.7.8-.4.7-.4.8-.3.7-.3.8-.3.7-.2.8-.2.6-.2 2.4-.5 4.6-1 15.5-3.6 21.6-5 25.4-5.9 13.4-3 13.5-3.2 13.3-3 12.7-3 12-2.6 10.8-2.5 5-1.1 4.5-1 4-1 3.7-.8 1.5-.3 1.5-.4 1.5-.3 1.5-.3 1.4-.4 1.4-.3 1.5-.4 1.4-.3 1.4-.3 1.3-.4 1.4-.3 1.4-.3 1.3-.4 1.3-.3 1.4-.4 1.3-.3 1.2-.3 1.3-.4 1.3-.3 1.2-.3 1.3-.4 1.2-.3 1.2-.4 1.2-.3 1.2-.3 1.1-.4 1.2-.3 1.1-.3 1.2-.4 1.1-.3 1.1-.3 1.1-.4 1-.3 1.2-.3 1-.4 1-.3 1-.3 1.1-.4 1-.3 1-.3 1-.4 1-.3 1-.3.9-.4 1-.3.9-.3.9-.3.9-.4.9-.3.8-.3 1-.3.8-.4.8-.3.8-.3.9-.3.8-.4.8-.3.8-.3.7-.3.8-.3.8-.4.7-.3.7-.3.8-.3.7-.3.7-.3.7-.3.6-.4.7-.3.7-.3.6-.3.6-.3.7-.3.6-.3.6-.3.6-.3.6-.3.5-.3.6-.3.6-.3.5-.3.5-.3.5-.2.6-.3.5-.3.5-.3.4-.3.5-.3.5-.2.4-.3.5-.3.4-.3.4-.2.4-.3.4-.3.4-.2.4-.3.4-.3.4-.2.3-.3.4-.2.3-.3.4-.2.3-.3.3-.2.3-.2.3-.3.3-.2.3-.2.2-.3.3-.2.3-.2.2-.2.2-.2.3-.2.2-.2.2-.3.2-.2.2-.1.2-.2.2-.2.2-.2.2-.2.1-.2.2-.2.2-.1.1-.2v-.1h.1v-.2l.1-.2V669l.1-.2v-.4l.1-.2V667.3l.1-.2V664l-.1-.4v-.4l-.1-.4v-.4l-.1-.4v-.4l-.2-.4v-.4l-.1-.5-.1-.4-.1-.5-.1-.5-.1-.4-.1-.5-.1-.5-.2-.5-.1-.5-.1-.5-.2-.5-.1-.5-.2-.5-.2-.6-.1-.5-.2-.6-.2-.5-.2-.6-.2-.5-.2-.6-.2-.6-.2-.5-.2-.6-.3-.6-.2-.6-.2-.6-.3-.6-.2-.6-.3-.6-.3-.6-.2-.6-.3-.6-.3-.6-.3-.7-.3-.6-.3-.6-.3-.6-.3-.7-.3-.6-.4-.6-.3-.7-.3-.6-.4-.7-.3-.6-.4-.7-.3-.6-.4-.7-.3-.6-.4-.7-.4-.6-.4-.7-.4-.6-.4-.7-.3-.7-.4-.6-.5-.7-.4-.6-.4-.7-.4-.7-.4-.6-.5-.7-.4-.7-.4-.6-.5-.7-.4-.6-.5-.7-.4-.7-.5-.6-.5-.7-.4-.7-.5-.6-.5-.7-.4-.6-.5-.7-.5-.7-.5-.6-.5-.7-.5-.6-.5-.7-.5-.6-.5-.7-.5-.6-.5-.7-.6-.6-.5-.7-.5-.6-.5-.6-.6-.7-.5-.6-.5-.6-.6-.7-.5-.6-.5-.6-.6-.6-.5-.7-.6-.6-.5-.6-.6-.6-.6-.6-.5-.6-.6-.6-.5-.6-.6-.6-.6-.6-.5-.6-.6-.6-.6-.5-.6-.6-.5-.6-.6-.6-.6-.5-.6-.6-.6-.5-.5-.6-.6-.5-.6-.6-.6-.5-.6-.6-.6-.5-.6-.5-.5-.5-.6-.6-.6-.5-.6-.5-.6-.5-.6-.5-.6-.5-.6-.4-.6-.5-.6-.5-.6-.5-.6-.4-.5-.5-.6-.4-.6-.5-.6-.4-.6-.4-.6-.5-.6-.4-.6-.4-.6-.4-.5-.4-.6-.4-.6-.4-.6-.4-.6-.4-.5-.3-.6-.4-.6-.4-.6-.3-.5-.4-.6-.3-.6-.3-.5-.3-.6-.4-.5-.3-.6-.3-.6-.3-.5-.2-.5-.3-.6-.3-.5-.3-.6-.2-.5-.3-.5-.2-.6-.2-.5-.3-.5-.2-.5-.2-.5-.2-.5-.2-.5-.2-.5-.2-.5-.2-.5-.1-.5-.2-.4-.1-.5-.2-.5-.1-.4-.2h-.5l-.4-.2-.5-.1-.4-.1-.4-.1-.5-.1h-.4l-.4-.2h-.4l-.4-.1h-.4l-.4-.1h-.7l-.4-.1H1080.2l-1 .2h-1.9l-.9.1h-1l-.9.1h-9l-.9-.1-.8-.1h-.9l-.9-.2h-.8l-.9-.1-.8-.1-.9-.2h-.8l-.8-.2-.9-.1-.8-.2-.8-.2-.8-.1-.8-.2-.8-.2-.8-.2-.8-.2-.8-.2-.8-.2-.8-.2-.7-.2-.8-.3-.7-.2-.8-.2-.7-.3-.8-.3-.7-.2-.7-.3-.8-.3-.7-.3-.7-.3-.7-.3-.7-.3-.7-.4-.7-.3-.7-.3-.6-.4-.7-.3-.6-.4-.7-.3-.6-.4-.7-.3-.6-.4-.6-.4-.6-.4-.7-.4-.6-.4-.6-.4-.5-.4-.6-.4-.6-.4-.6-.4-.5-.4-.6-.4-.5-.4-.6-.5-.5-.4-.5-.4-.6-.4-.5-.5-.5-.4-.5-.5-.5-.4-.5-.4-.5-.5-.4-.4-.5-.5-.5-.4-.5-.5-.4-.4-.5-.5-.4-.4-.4-.5-.5-.4-.8-1-.9-.8-.8-1-.8-.8-.8-1-.7-.8-.8-1-.7-.8-.7-.9-.7-.9-.7-.8-.7-.9-.7-.9-.6-.8-1.3-1.7-1.3-1.7-.4-.5-.4-.6-.4-.6-.4-.5-.5-.6-.4-.6-.4-.6-.3-.6-.4-.6-.4-.6-.4-.7-.4-.6-.4-.6-.5-.7-.7-1.3-.9-1.4-.8-1.4-.8-1.4-.8-1.5-.9-1.5-.8-1.6-.9-1.5-.8-1.6-1-1.6-.8-1.7-.9-1.6-.8-1.7-.9-1.7-.9-1.7-.9-1.7-.8-1.7-.9-1.8-.9-1.7-.8-1.7-.9-1.8-.8-1.7-.9-1.7-.8-1.7-.8-1.8-.8-1.7-.8-1.6-.8-1.7-.8-1.6-.7-1.7-.8-1.5-.7-1.6-.7-1.5-.7-1.6-.6-1.4-.7-1.5-.6-1.4-.6-1.3-.6-1.3-.5-1.3-.5-1.2-.5-1.2-.5-1.2-.4-1-.5-1.1-.4-1-.3-1-.4-1-.3-1-.2-.5-.1-.6-.2-.6-.2-.6-.2-.7-.1-.8-.2-1-.2-1.2v-.8l-.1-2 .1-2.2.4-2 .7-2.5 1.4-3.1 2.5-3.7 4-3.5 3.7-1.9-.2-.1-.8-.5-.9-.4-.8-.5-.8-.4-.8-.5-.8-.5-.8-.4-.8-.5-.8-.5-.7-.4-.8-.5-.7-.5-.8-.5-.7-.5-.7-.5-.7-.5-.7-.5-.7-.5-.7-.5-.7-.6-.6-.5-.7-.5-.6-.6-.7-.5-.6-.6-.7-.6-.6-.6-.6-.6-.6-.7-.6-.6-.6-.7-.6-.6-.6-.7-.6-.8-.5-.7-.6-.8-.5-.8-.5-.8-.5-.9-.5-.8-.5-1-.4-.9-.5-1-.3-.9-.3-.6-.1-.5-.2-.6-.2-.5-.1-.6-.2-.5-.1-.6-.1-.5-.2-.6v-.6l-.2-.6v-.6l-.1-.6v-.6l-.1-.6v-4.2l.1-.7v-.6l.2-.6v-.6l.2-.6.1-.6.1-.6.2-.6.2-.5.1-.6.2-.6.2-.5.2-.6.2-.5.2-.6.3-.5.2-.5.3-.5.2-.5.3-.5.2-.5.4-.5.5-.9.6-.8.6-.9.6-.8.6-.8.7-.7.6-.7.7-.7.6-.7.7-.6.7-.6.7-.6.6-.6.7-.5.7-.6.7-.5.7-.5.7-.5.7-.4.8-.5.7-.4.7-.5.7-.4.8-.4.7-.4.8-.4.7-.4.8-.4.8-.3.7-.4.8-.4.8-.3.8-.4.9-.3.4-.2.6-.3 1-.3.9-.3.9-.2.8-.3.9-.2.8-.2.8-.2.8-.1.8-.1.8-.2.8-.1.8-.1.8-.1.8-.1.8-.1h.8l.8-.2h.8l.9-.1h.8l.9-.1h.8l.9-.1h.8l.9-.1h.9l.9-.1h1.8l1.8-.1h1.5l-.3-.4-.5-.5-.5-.5-.5-.5-.5-.6-.5-.5-.5-.5-.5-.6-.5-.5-.4-.6-.5-.5-.5-.6-.4-.6-.2-.2-2-.2h-1.2l-1.3-.2H987l-1.3-.2-1.3-.1-1.3-.2-1.3-.1-1.3-.1-1.3-.2-1.4-.2-1.3-.1-1.4-.2-1.3-.2-1.4-.1-1.3-.2-1.4-.2-1.3-.2-1.4-.3-1.3-.2-1.3-.2-1.4-.3-1.3-.2-1.3-.3-1.3-.3-.7-.1-.6-.2-.6-.1-.7-.2-.6-.1-.7-.2-.6-.2-.7-.2-.6-.1-.6-.2-.7-.2-.6-.2-.7-.2-.6-.3-.7-.2-.6-.2-.7-.3-.6-.2-.7-.3-.7-.3-.7-.3-.7-.4-.7-.3-.7-.4-.7-.5-.8-.4-.8-.5-.8-.6-.8-.6-.9-.7-.8-.7-.8-.8-.6-.6-.5-.5-.5-.5-.5-.6-.4-.5-.5-.5-.4-.6-.5-.5-.4-.6-.4-.5-.5-.6-.4-.5-.4-.6-.4-.6-.3-.5-.4-.6-.4-.6-.4-.5-.3-.6-.4-.6-.3-.6-.4-.6-.3-.6-.3-.6-.3-.6-.3-.6-.4-.6-.3-.6-.3-.6-.2-.6-.3-.6-.3-.6-.3-.6-.3-.7-.2-.6-.3-.6-.2-.6-.3-.7-.2-.6-.3-.6-.2-.7-.2-.6-.3-.6-.2-.7-.2-.6-.2-.7-.2-.6-.2-.7-.2-.6-.2-.7-.2-.6-.2-.7-.2-.7-.2-.6-.1-.7-.2-.6-.2-.7-.1-.7-.2-.7-.1-.6-.2-.7-.1-.7-.2-.6-.1-.7-.1-.7-.2-.7v-.7l-.2-.6-.1-.7-.1-.7-.1-.7-.1-.7-.1-.7-.1-.7-.1-.7-.1-.7-.1-.7v-.7l-.2-.7v-.6l-.1-.7v-.7l-.1-.7v-.7l-.1-.8v-.7l-.1-.7v-.7l-.1-.7V264.5l-.1-.7v-8.5l.1-.7v-1.4l.1-.8v-.7l.1-.7v-.7l.2-.7v-.7l.1-.7v-.7l.2-.7v-.7l.1-.8.1-.7.1-.7.1-.7.1-.7.2-.7v-.7l.2-.7.1-.7.2-.7v-.7l.2-.7.2-.7.1-.7.2-.7.2-.7.1-.7.2-.7.2-.7.2-.7.1-.7.2-.7.2-.7.2-.7.3-.7.2-.6.2-.7.2-.7.3-.7.2-.7.2-.7.3-.6.2-.7.3-.7.3-.7.3-.6.2-.7.3-.7.3-.6.3-.7.3-.7.3-.6.4-.7.3-.6.3-.7.4-.6.3-.7.4-.6.4-.7.3-.6.4-.7.4-.6.4-.6.4-.6.4-.7.4-.6.5-.6.4-.6.4-.6.5-.6.5-.6.4-.6.5-.6.5-.6.5-.6.5-.6.5-.5.6-.6.5-.6.5-.5.6-.6.6-.5.5-.5.6-.6.6-.5.6-.5.6-.5.6-.5.7-.5.6-.5.7-.5.6-.4.7-.5.7-.4.6-.5.7-.4.7-.4.8-.4.7-.4.7-.4.7-.4.5-.2-.7-.1-.9-.2-.8-.1-.9-.2-.8-.1-.9-.1-.8-.2h-1l-.8-.2h-.8l-.9-.2h-.9l-.8-.2h-.9l-.9-.1h-.8l-.9-.1h-.8l-.9-.1H929.6zm-51.8 584.4h-.6l-.3.1h-.3l-.3.1h-.2l-.3.2h-.3l-.3.1-.3.1-.4.1-.3.1-.3.1-.3.1-.3.2H873v.1h-.2v.1l-.2.1-.2.2-.2.1v.1l-.2.1v.1l-.2.1v.1l-.1.2h-.1v.2l-.2.1v.1l-.1.2-.1.1v.2l-.1.1-.2.3-.1.3-.1.3-.1.4-.1.3-.1.4-.1.3-.1.4-.1.4v.4l-.1.4-.1.4v.4l-.1.4v.9l-.1.5v1.3l-.1.5V787.7l.1.4v.9l.1.5v.4l.1.5v.4l.1.4v.5l.1.4.1.4v.4l.1.4.1.4v.4l.2.3v.4l.1.3.1.4v.3l.2.3v.3l.2.3v.3l.2.4.1.3.1.3.2.4.1.3.2.3.1.3.2.3.1.3.2.3.1.3.2.3.2.3.1.3.2.3.2.2.2.3.1.3.2.2.2.3.2.2.2.3.2.2.2.2.2.3.2.2.2.2.2.2.2.2.3.2.2.2.2.2.2.2.2.2.2.2.3.1.2.2.2.1.2.2.2.1.3.2.2.1.2.1.2.2h.3l.2.2h.2l.2.2h.3l.2.2h.2l.2.1h.3l.2.1h.2l.2.1h.5l.2.1H884.7l.2-.1h.2l.2-.1h.2l.2-.2h.2l.2-.1.2-.1.1-.1.2-.1.2-.2h.1l.2-.2.2-.2.1-.1.2-.2.1-.1.2-.2v-.2l.2-.2.2-.2v-.2l.2-.2.1-.2.1-.2.1-.3.1-.2.1-.3.1-.2.1-.3.1-.3v-.3l.1-.3.1-.3v-.3l.1-.3v-.4l.1-.3v-1.1l.1-.4V797l-.1-.4v-.5l-.1-.4v-.5l-.2-.5v-.5l-.1-.5-.1-.5-.1-.6-.1-.5-.2-1-.3-.9-.2-.9-.2-.9-.2-.8-.2-.8-.2-.8-.2-.8-.2-.7-.2-.8-.2-.6-.2-.7-.3-.6-.2-.6-.2-.6-.2-.6-.2-.5-.2-.5-.2-.5-.3-.5-.2-.4-.2-.5-.2-.4-.2-.4-.3-.3-.2-.4-.2-.3-.1-.1-.1-.2-.1-.1-.2-.2v-.1l-.2-.2h-.1l-.1-.2-.1-.1-.2-.1v-.1l-.2-.1-.1-.1-.1-.1-.1-.1-.2-.1v-.1h-.2l-.1-.2h-.1l-.2-.1h-.1l-.1-.1-.1-.1h-.2v-.1H879.8l-.2-.1h-.1l-.1-.1h-.4l-.1-.1h-1.2zm93.4-315.6h.1l-.4-.2.3.2z"/>
  </g>
</svg>
