<?xml version="1.0" encoding="UTF-8" standalone="no"?>
<!DOCTYPE svg PUBLIC "-//W3C//DTD SVG 1.1//EN" "http://www.w3.org/Graphics/SVG/1.1/DTD/svg11.dtd">
<svg width="100%" height="100%" viewBox="0 0 301 100" version="1.1" xmlns="http://www.w3.org/2000/svg" xmlns:xlink="http://www.w3.org/1999/xlink" xml:space="preserve" xmlns:serif="http://www.serif.com/" style="fill-rule:evenodd;clip-rule:evenodd;stroke-linejoin:round;stroke-miterlimit:2;">
    <g transform="matrix(1,0,0,1,-329.517,-288)">
        <path d="M616.787,342.538C612.155,330.52 607.524,318.503 602.892,306.487C607.292,304.792 609.156,299.324 607.091,294.407C605.026,289.485 600.052,286.88 595.945,288.461C521.174,317.28 438.341,317.28 363.57,288.461C359.465,286.88 354.49,289.485 352.425,294.407C350.361,299.324 352.224,304.792 356.624,306.487C351.991,318.503 347.36,330.52 342.729,342.538C337.879,340.673 332.311,343.028 330.247,347.949C328.183,352.866 330.64,358.584 335.781,360.563C428.435,396.276 531.079,396.276 623.733,360.563C628.876,358.584 631.333,352.866 629.268,347.949C627.205,343.028 621.636,340.671 616.787,342.538Z" style="fill-rule:nonzero;"/>
    </g>
</svg>
