<?xml version="1.0" encoding="UTF-8" standalone="no"?>
<!DOCTYPE svg PUBLIC "-//W3C//DTD SVG 1.1//EN" "http://www.w3.org/Graphics/SVG/1.1/DTD/svg11.dtd">
<svg width="100%" height="100%" viewBox="0 0 311 344" version="1.1" xmlns="http://www.w3.org/2000/svg" xmlns:xlink="http://www.w3.org/1999/xlink" xml:space="preserve" xmlns:serif="http://www.serif.com/" style="fill-rule:evenodd;clip-rule:evenodd;stroke-miterlimit:10;">
    <g transform="matrix(1,0,0,1,-9.40138,-48.2451)">
        <path d="M314.179,347.556C312.115,342.636 306.545,340.278 301.696,342.144C297.065,330.127 292.434,318.11 287.801,306.093C292.201,304.398 294.065,298.93 292,294.013C289.935,289.092 284.961,286.485 280.854,288.067C280.197,288.32 279.534,288.554 278.875,288.804C298.441,264.031 310.121,232.743 310.121,198.725C310.121,118.393 244.999,53.27 164.666,53.27C84.333,53.27 19.213,118.394 19.213,198.726C19.213,232.744 30.893,264.031 50.459,288.805C49.8,288.555 49.138,288.322 48.48,288.068C44.374,286.486 39.399,289.093 37.334,294.014C35.271,298.931 37.133,304.399 41.533,306.094C36.901,318.111 32.269,330.128 27.638,342.145C22.789,340.28 17.22,342.636 15.156,347.557C13.093,352.474 15.55,358.192 20.691,360.171C113.345,395.884 215.989,395.884 308.643,360.171C313.786,358.19 316.243,352.473 314.179,347.556Z" style="fill:none;fill-rule:nonzero;stroke:black;stroke-width:1px;"/>
    </g>
</svg>
